<svg id="Camada_2" data-name="Camada 2" xmlns="http://www.w3.org/2000/svg" viewBox="0 0 663.08 673.43"><defs><style>.cls-1{fill:#ffcdb6;}.cls-2{fill:#afd7ce;}.cls-3{fill:#4b4b4c;}.cls-4{fill:#5d5d60;}.cls-5{fill:#5f5c7c;}.cls-6{fill:#ffe7c5;}.cls-7{fill:#f2e3dd;stroke-width:2px;}.cls-10,.cls-7,.cls-8,.cls-9{stroke:#000;}.cls-10,.cls-7{stroke-miterlimit:10;}.cls-8{fill:#e5dfdc;}.cls-8,.cls-9{stroke-linecap:round;stroke-linejoin:round;stroke-width:3px;}.cls-9{fill:none;}.cls-10{fill:#f7f6f5;stroke-width:8px;}.cls-11{font-size:69.99px;font-family:WWDigital, WW Digital;}</style></defs><title>nodata</title><path class="cls-1" d="M533.4,161.46a100,100,0,0,0,25.75-73.31c-.42-6.37-1.84-13.37-7-17.2s-12-3.26-18.19-2.45c-5.36.69-11.13,1.69-14.88,5.58-4.79,5-4.59,12.78-4,19.67,1.81,21.29,4.58,43.3,15.8,61.48" transform="translate(-60.65 -26.57)"/><path class="cls-1" d="M564.77,261.79c-5.73.81-11.45,2.47-16.22,5.75s-8.5,8.34-9.28,14.07c-1,7.2,2.67,14.19,6.8,20.17,4,5.78,8.79,11.36,15.26,14.05,10.89,4.53,23.47-.25,33.2-6.91s18.33-15.29,29.27-19.7c-8.42,9-16.66,18.47-21.45,29.81s-5.67,25,.47,35.63,20.42,16.85,31.54,11.56c9.62-4.58,14.31-15.88,15-26.51,1.16-17.69-6.24-34.69-13.49-50.87,8.26,8.83,16.69,17.79,27.16,23.84s23.48,8.87,34.8,4.61c9.38-3.54,16.61-11.65,20.4-20.92s4.36-19.63,3.08-29.57c-1-7.8-3.17-15.56-7.34-22.23s-10.48-12.19-18-14.41c-11.73-3.46-24.41,1.39-34.43,8.38a84.44,84.44,0,0,0-16.16,14.8c-4.84,5.75-7.87,12.28-12,18.43-4.5,6.67-10.44,2.21-16.34-.26a149.53,149.53,0,0,0-24-8.06A77.3,77.3,0,0,0,564.77,261.79Z" transform="translate(-60.65 -26.57)"/><path class="cls-2" d="M583.73,164.43c-2.14-4.41-5.34-8.74-10-10.19-6.54-2-13.45,2.27-17.86,7.52-10.66,12.73-12.17,32.33-3.58,46.53,1.81,3,4.12,6.47,2.8,9.72-1.42,3.5-6,4.19-9.74,4.51a135.6,135.6,0,0,0-63.18,22.1c-3.69,2.46-7.41,5.27-9.26,9.3-2.95,6.39-.18,14.36,5.09,19s12.48,6.51,19.5,7.05c16,1.22,31.8-3.63,46.83-9.22,10.72-4,21.31-8.41,32.36-11.45,5.39-1.48,11-2,16.34-3.33,2.92-.73,6-2.13,5.16-5.54-.69-2.92-3.66-5.55-5.11-8.12-2.26-4-2.81-8.6-3.26-13.12-1-10.47-.3-21-.28-31.5C589.55,186.4,588.74,174.76,583.73,164.43Z" transform="translate(-60.65 -26.57)"/><path class="cls-2" d="M655.22,436.48c.1,7.75-.07,15.89-3.83,22.67-4.6,8.28-14.08,13.1-23.53,13.78-3,.21-6.15,0-8.72-1.53-3.12-1.89-4.83-5.46-5.78-9-2.08-7.79-1.23-16.16,1.3-23.81s6.69-14.67,11.24-21.33a189,189,0,0,1,11.85-15.58q3.21-3.79,6.62-7.42c1.44-1.53,4.59-6,6.7-6,2.32,7.38,2.52,16.14,3.12,23.82C654.82,420.23,655.11,428.36,655.22,436.48Z" transform="translate(-60.65 -26.57)"/><path class="cls-2" d="M647.65,367.35c5.13,22.27,15.55,43.41,30.82,60.41a41.79,41.79,0,0,0,10.16,8.79c3.91,2.21,8.6,3.34,13,2.28,6.25-1.53,10.81-7.41,12.12-13.72s-.17-12.89-2.66-18.83a56.53,56.53,0,0,0-60.89-33.9" transform="translate(-60.65 -26.57)"/><path class="cls-3" d="M528.63,285.88c-.13-.08-.27-.15-.41-.22l-.08,0h0a2.25,2.25,0,0,0-.42-.13l-.22-.05a.83.83,0,0,0-.15,0l-.18,0a2.62,2.62,0,0,0-2.8,2.33,2.93,2.93,0,0,0,1.07,2.42,2.5,2.5,0,0,0,2.62.34,3,3,0,0,0,1.66-2.18A2.54,2.54,0,0,0,528.63,285.88Z" transform="translate(-60.65 -26.57)"/><path class="cls-3" d="M521.25,303.14l0,0,0,0Z" transform="translate(-60.65 -26.57)"/><path class="cls-3" d="M523.92,301.2a3.31,3.31,0,0,0-1.39-1,.57.57,0,0,0-.59-.3c-.08,0-.16.07-.24.09a3.22,3.22,0,0,0-.62,0,2.63,2.63,0,0,0-.91.25A3.15,3.15,0,0,0,518.1,302a3.08,3.08,0,0,0,.59,3.18,3.33,3.33,0,0,0,3.06,1.12,3.62,3.62,0,0,0,2.56-2A3,3,0,0,0,523.92,301.2Z" transform="translate(-60.65 -26.57)"/><polygon class="cls-3" points="460.53 276.01 460.53 276.01 460.53 276.01 460.53 276.01"/><path class="cls-3" d="M533.85,306.74a3.41,3.41,0,0,0-.49-1.89,8.76,8.76,0,0,0-.55-.85,1.13,1.13,0,0,0-1.19-.38,1.16,1.16,0,0,0-.49.29,1.14,1.14,0,0,0-.25.42,2.14,2.14,0,0,0-1,.5,2.66,2.66,0,0,0-.33,3.46,2.41,2.41,0,0,0,3.51.47,2.28,2.28,0,0,0,.76-1.83C533.82,306.87,533.84,306.81,533.85,306.74Z" transform="translate(-60.65 -26.57)"/><path class="cls-3" d="M723,281.31a3.43,3.43,0,0,0-1.9-1.05,3,3,0,0,0-3.38,1.78,2.8,2.8,0,0,0-.15.65,2.58,2.58,0,0,0,0,.29c-.56.31-1.1.63-1.65.91-1.7.89-3.45,1.69-5.23,2.41a59.73,59.73,0,0,1-10.79,3.21c-.62.12-1.24.21-1.86.32a40.19,40.19,0,0,0,8.16-5.62,50,50,0,0,0,4.7-4.73c.7-.81,1.46-1.66,2.11-2.57a2.85,2.85,0,0,0,2.39-.57,2.66,2.66,0,0,0,.84-1.33,2.4,2.4,0,0,0,.3-1.77,2.84,2.84,0,0,0-1.45-1.83,2.94,2.94,0,0,0-3.78.86,3.26,3.26,0,0,0-.62,2.11,2.55,2.55,0,0,0,.68,1.59c-.61.78-1.18,1.58-1.81,2.3A52.35,52.35,0,0,1,704.9,283a69.57,69.57,0,0,1-10,7.24,62.91,62.91,0,0,1-17.86-.5,73.45,73.45,0,0,1-7.2-1.62c-.52-.23-1-.49-1.58-.72a66.65,66.65,0,0,0,12.1-4.13A75.21,75.21,0,0,0,718.75,244q.9-2.19,1.65-4.44a17.4,17.4,0,0,0,1.12-5c.07-3.35-2.06-5.73-5-7a32.68,32.68,0,0,0-9.86-1.87,65.2,65.2,0,0,0-11.09.11c-14.63,1.4-28.38,7.63-39.89,16.61-1,.8-2,1.63-3,2.47l.06-.16a.33.33,0,0,0,.31-.33c0-.28.07-.53.1-.8.42-1.13.85-2.27,1.29-3.41,1.07-1.18,1.93-2.61,2.9-3.88.37-.48.76-.95,1.14-1.43l.87-.83a91.78,91.78,0,0,1,10.81-8.54c7.52-5.18,15.53-9.61,23.11-14.7,1.31-.88,2.94-2,3.21-3.7s-1.05-2.94-2.61-3.35a16,16,0,0,0-5.82-.08,28.94,28.94,0,0,0-5.88,1.33c-8,2.69-14.82,8.54-19.74,15.32-1.24,1.7-2.36,3.46-3.43,5.25.46-2.29.85-4.6,1.11-6.93.89-2.55,1.7-5.13,2.59-7.69,3.26-5.37,8.36-9.55,13.39-13.21,6.62-4.8,14.31-9.88,17.67-17.68,1.55-3.58,1.84-8-1-11a10.6,10.6,0,0,0-10.55-2.59c-8.14,2.21-12.76,10.38-15.46,17.75a150.28,150.28,0,0,0-4.37,14.7c-.63,2.44-1.23,4.89-1.78,7.36,0-.48,0-1,0-1.44a1,1,0,0,0,0-.67,97.75,97.75,0,0,0-1.41-11.83,111.68,111.68,0,0,0-4.53-16.94c-1-2.75-2-5.48-3.16-8.16-.55-1.31-1.13-2.61-1.73-3.91a11.9,11.9,0,0,0-1.8-3,4.48,4.48,0,0,0-6.14-.6c-2,1.4-2.66,3.87-3.22,6.08a33.83,33.83,0,0,0,20.27,39.62,77.86,77.86,0,0,1-.82,16.35,70.5,70.5,0,0,1-2.44,10.28c-1.27,2.57-2.44,5.2-3.55,7.86,0-.35.12-.7.16-1a41.69,41.69,0,0,0,.29-9.73,42.72,42.72,0,0,0-6.27-18.7,40.94,40.94,0,0,0-7.29-8.68.88.88,0,0,0-1.32.37c-3.29,5.79-1.58,12.93,1.14,18.58,3.21,6.65,8.14,12.72,9.16,20.23a16.1,16.1,0,0,1-.55,7.18c-.18-.6-.36-1.21-.57-1.8-.56-1.6-1.17-3.19-1.81-4.76q-1.9-4.62-4.13-9.1a136.14,136.14,0,0,0-23.24-32.94c-3.85-4-9-10.13-15.21-7.14a10.5,10.5,0,0,0-1.09.61c.48-1.26,1-2.53,1.57-3.76a75.58,75.58,0,0,1,5.81-10c1.76-2.58,3.66-5,5.62-7.46a9.1,9.1,0,0,0,1.75-1.65c2-1.68,3.9-3.63,5.83-5.4q3.69-3.41,7.41-6.8a139.47,139.47,0,0,0,13.11-13.3c7-8.38,12.49-18.91,11.66-30.13A26.71,26.71,0,0,0,648,99c-.2-.58-.42-1.16-.67-1.73a.54.54,0,0,0-.47-.33,3.73,3.73,0,0,0-3.36-.79c-2.67.77-4.37,3.84-5.52,6.16-2.85,5.73-3.31,12.26-3.85,18.54A82.54,82.54,0,0,1,630.8,139a86.14,86.14,0,0,1-7,15.9,94.68,94.68,0,0,1-5.34,8.36q-1.44,2-3,3.95a15.72,15.72,0,0,0-2.81,4.08.75.75,0,0,0,0,.26c-1.49,1.86-2.94,3.75-4.31,5.71a79.16,79.16,0,0,0-6.33,10.68c-.84,1.72-1.67,3.53-2.38,5.38a34.87,34.87,0,0,0,.36-6.91c-.34-7.32-3.12-14.34-6.66-20.68a81.92,81.92,0,0,0-5.83-9.23c-1.81-2.41-4.18-4.63-7.29-5.07-3.43-.48-6.71,1.24-9.45,3.12a42.92,42.92,0,0,0-6.67,5.74,49.87,49.87,0,0,0-13,28.95l-.1.07c0-1.25.07-2.49.21-3.74A52.9,52.9,0,0,1,555,171a59.25,59.25,0,0,1,3.16-6.39c5-7.1,11.85-13,18.88-18C595,133.89,617.93,123.76,626.62,102a45,45,0,0,0,3.07-17.44,50,50,0,0,0-1.05-9.2,36.82,36.82,0,0,0-2.4-7.75l.16-.25c.24-.44-.23-.78-.64-.71a.54.54,0,0,0-.56-.16.83.83,0,0,0-1,.86c0,.31,0,.63,0,.94A81.23,81.23,0,0,1,617.82,75c-2.71,2.56-5.63,4.9-8.58,7.19-6,4.61-12.16,8.91-17.7,14-11,10.21-18.33,23.48-23.7,37.39-1.54,4-2.92,8-4.24,12.13-.64,2-1.27,4-1.9,6a32.18,32.18,0,0,0-1.62,6.24l0,.37,0,0a54.72,54.72,0,0,0-6.66,9.15,43.4,43.4,0,0,0-3,6.5c1.2-5.5,2.56-11,4.16-16.37a230,230,0,0,1,12.36-31.95c4.82-10.3,9.79-20.65,12.82-31.64a92.38,92.38,0,0,0,3-32.17,95,95,0,0,0-3.24-17.86,90.92,90.92,0,0,0-3-8.8c-.56-1.41-1.14-2.82-1.79-4.19s-1.53-2.77-2.32-4.15c-.49-.86-1.88-.32-1.44.62l.3.71c-1.82,6.55-3,13.31-4.15,20-1.24,7.1-2.25,14.24-2.89,21.42a173.86,173.86,0,0,0-.7,21.16c.2,6.58.79,13.14,1,19.72a95.42,95.42,0,0,1-.33,11.09c-.18,1.84-.43,3.68-.77,5.49a42.93,42.93,0,0,0-1.09,5.44v0c-2.93,7-5.63,14.13-7.89,21.42a193.16,193.16,0,0,0-7.35,33c-.48-1.37-1-2.73-1.42-4.09-2.51-7.37-4.93-14.75-7-22.25q-1.74-6.32-3.15-12.71c6.7-13.11,13.4-26.47,16-41.08a62.55,62.55,0,0,0,.41-21.36c-.56-3.38-1.49-7-3.87-9.55a9,9,0,0,0-8-3.12c-.17,0-.32.09-.49.13l-.27,0c-10.28,2.4-18.25,11.27-20.84,21.33-3,11.47.49,23.42,4.91,34,2.86,6.87,6.18,13.54,8.73,20.53a1,1,0,0,0,1.17.68c.33,1.4.66,2.8,1,4.19,2,7.8,4.36,15.49,6.94,23.11,2.4,7.06,4.92,14.11,7.74,21-.22-.25-.46-.48-.69-.72-7-16.34-21.5-28.14-34.29-40.07a148.61,148.61,0,0,1-14.71-15.4l-.17-.42a1,1,0,0,0-.33-1.36l-.28-.19q-.37-1-.69-2.07a48.05,48.05,0,0,1-1.54-8.05,140.44,140.44,0,0,1-.5-16.79c.07-10.61-.39-21.34-5.79-30.78a42.6,42.6,0,0,0-9.26-11.22.64.64,0,0,0-.48-.4l-1-.82a.93.93,0,0,0-1.15,0,.77.77,0,0,0-.71.77c0,1,0,1.93,0,2.89-5.65,7.28-8,16.75-7.52,25.93.55,11.17,5.54,21.73,12.79,30.11a63.82,63.82,0,0,0,12.86,11.24c.3.4.62.78.93,1.18.05.07.08.15.13.23s.08.05.11.08c9.91,12.42,23,22,34.19,33.35a96.63,96.63,0,0,1,13.65,17,25.52,25.52,0,0,0-4.19-3.13c-2.84-1.78-5.8-3.38-8.79-4.89a138.42,138.42,0,0,0-19.28-8c-2.61-.85-5.25-1.61-7.91-2.32a3.3,3.3,0,0,0-1.77-1.51c-.74-.39-1.49-.75-2.27-1.07s-1.7-.65-2.58-.91a27.21,27.21,0,0,0-2.89-1.77c-1.3-.75-2.6-1.49-3.92-2.19q-4-2.13-8.18-3.94A101.5,101.5,0,0,0,465.68,157c-2-.49-4-.86-6.05-1.19a2.7,2.7,0,0,0-1.31-2.22,2.81,2.81,0,0,0-.54-.55,2.73,2.73,0,0,0-2.56-.36,3.27,3.27,0,0,0-1.83,1.73,3.24,3.24,0,0,0,2,4.21,3.19,3.19,0,0,0,2.6-.18,3.23,3.23,0,0,0,1.48-1.68c4.47,1.08,8.89,2.45,13.2,4A120.45,120.45,0,0,1,489,167.74c1,.55,2.07,1.13,3.09,1.71-.66-.06-1.33-.12-2-.13-1.6,0-3.6-.06-5,.74a.57.57,0,0,0-.19.19c-4.41-.55-8.84-.92-13.3-1.05-3.85-.11-7.72-.06-11.57.14a60.56,60.56,0,0,0-9.08.89,2.77,2.77,0,0,0-1-1.46,2.73,2.73,0,0,0-1.35-.46,3.35,3.35,0,0,0-1.09-.11,2.83,2.83,0,0,0-2.4,2,3.43,3.43,0,0,0-.15,1.65,3,3,0,0,0,.7,1.48,3,3,0,0,0,.85.65,3.1,3.1,0,0,0,.79.28,2.93,2.93,0,0,0,1.41,0,3.21,3.21,0,0,0,1.48-.75,3.09,3.09,0,0,0,.9-1.61c2.54-.11,5.08-.46,7.6-.62,3.42-.22,6.85-.35,10.28-.33,4.67,0,9.35.3,14,.79a138.1,138.1,0,0,1-21.48,7.78,3.26,3.26,0,0,0-1.22-1.05,2.67,2.67,0,0,0-3.09.67,2.83,2.83,0,0,0-1.58,2.22,2.65,2.65,0,0,0,.54,1.84,3.28,3.28,0,0,0,3.1,1.17,3.4,3.4,0,0,0,2.71-2.6,2.71,2.71,0,0,0,0-1.33,127.13,127.13,0,0,0,24.83-8.24c.79.1,1.58.19,2.36.3A142.21,142.21,0,0,1,527.78,184l.89.44a50,50,0,0,0-26.9-1.33,49.27,49.27,0,0,0-9.8,3.34c-3.08,1.45-6.59,3.18-8.61,6-4,5.63-.22,12.87,3.31,17.66,8.12,11,20.49,18.29,33.44,22.26a68.7,68.7,0,0,0-30.3,11.47c-3.93,2.66-9.27,6.12-9.56,11.39s4,9.49,8.69,11.38c4.95,2,10.57,2.8,15.84,3.43a109.08,109.08,0,0,0,16.46.68,111.22,111.22,0,0,0,26.63-4.21c-.43.29-.86.58-1.28.89-4.22,3.11-8.08,7.4-9.06,12.71-1.16,6.19,2.33,12,5.94,16.76a50.5,50.5,0,0,0,12.3,11.62c8.76,5.75,19.85,8.19,30,5.25-5.1,3-10.35,5.66-15.7,8.14-.73,0-1.52.1-2.16.12-1.16,0-2.32,0-3.48,0q-3.48-.07-6.95-.43a92.92,92.92,0,0,1-13.65-2.43c-.51-.13-.73.73-.24.9a71.08,71.08,0,0,0,13.85,3.31c2.36.32,4.73.51,7.11.6h.87q-7.53,3.24-15.29,5.85c-4.07,1.37-8.17,2.63-12.31,3.73-.42.11-.35.79.1.69q8-1.72,15.81-4.2l-.14.16-1.75,2.16c-1.17,1.44-2.26,2.93-3.33,4.44-.36.5.32,1.26.8.79,1.33-1.34,2.64-2.68,3.89-4.09l1.84-2.09.91-1.05a2,2,0,0,0,.71-1.3q6.69-2.25,13.19-5.06a3,3,0,0,0,1.57-.44.67.67,0,0,0,.28-.38c3-1.37,6.06-2.81,9-4.36,1.55-.81,3.08-1.66,4.61-2.52-2.28,2.27-4.56,4.55-6.77,6.88a117.85,117.85,0,0,0-9.87,11.64c-5.3,5.21-12.13,8.57-19,11.59-4.55,2-9.07,4.05-13.4,6.51a103.54,103.54,0,0,0-11.91,7.88,105,105,0,0,0-11.85,10.65,1,1,0,0,0-.13,1,5.45,5.45,0,0,0,1.84,2.33l.38.24c2.23,1.33,5.37,1.07,7.9.37A54,54,0,0,0,535,370.13c7.9-4.57,14.68-10.72,20.88-17.38,2.2-2.35,4.32-4.77,6.43-7.21a50.64,50.64,0,0,0-4.48,17.8c-1.95,3.61-3.77,7.3-5.65,11l-6.67,13c-2.22,4.3-4.46,8.59-6.64,12.92a43.1,43.1,0,0,0-4.43,12.16,18.77,18.77,0,0,0,2.48,13.46,1.06,1.06,0,0,0,1.65,0A85.87,85.87,0,0,0,557.32,381a69.09,69.09,0,0,0,.18-12.12l.15-.29c.05,6.23.78,12.44,1.42,18.63.45,4.37.85,8.75.91,13.14s-.46,8.71-.78,13.08c0,.59.82.88,1,.28a34.73,34.73,0,0,0,1.65-11.19,100.21,100.21,0,0,0-.5-11.36c-.68-7.68-1.85-15.35-1.92-23.08,0-1.07,0-2.13,0-3.19l.17-.35a52.87,52.87,0,0,0,8.86,28.07,52.17,52.17,0,0,0,10.06,11.12c.7.58,1.92-.3,1.45-1.14-7.66-13.49-4.32-30-10.54-44a26.4,26.4,0,0,0-6.39-9.1,53.85,53.85,0,0,1,1.64-5.24,69.76,69.76,0,0,1,6-9.73q.74-.9,1.38-1.86c1.65-2.14,3.39-4.22,5.2-6.24,3.31-3.7,6.84-7.2,10.33-10.72l1.72-1.71.44-.25a75.89,75.89,0,0,0-9.32,42,27.16,27.16,0,0,0,2.4,10.21,1.16,1.16,0,0,0,.75,1.35,13.56,13.56,0,0,0,8,5.91c6.84,1.88,14.18-.59,20.11-4,13.13-7.54,21.78-21.1,26.9-35.07a136.62,136.62,0,0,1-2.8,17.54,126.89,126.89,0,0,1-4.45,15.18c-1.39,1.3-2.72,2.66-4.19,3.89a56.76,56.76,0,0,1-4.93,3.67c-3.56,2.38-7.32,4.44-11.08,6.51-7,3.82-13.75,7.81-19.67,13.16a78.29,78.29,0,0,0-25.35,49.11,60.35,60.35,0,0,0-.37,10.06c-.31.49-.64.95-.93,1.45-.74,1.27,1,2.64,1.81,1.56a.61.61,0,0,0,.66-.59v-.42l.1-.16.26-.25,1.3-2c3.7-4.92,8.58-8.82,13.64-12.34,6.21-4.3,12.69-8.19,18.44-13.11a90.28,90.28,0,0,0,25-35.18,79.47,79.47,0,0,0,5-19c.64-1.59,1.27-3.18,1.86-4.79.16-.21.34-.41.49-.63a1,1,0,0,0,.08-1C634.82,362.86,636,359,637,355a115.69,115.69,0,0,0,2.81-16.42c.3-3.09.43-6.18.46-9.27.26-.87.51-1.75.74-2.64.19,1.07.38,2.13.58,3.19.59,9.25,1.51,18.51,2.83,27.69a1,1,0,0,0-.19.84,27.87,27.87,0,0,0,.76,3c.24,1.53.51,3.05.76,4.58q.22,7.4-.09,14.78c-.12,2.62-.32,5.23-.54,7.83-.18,2.09-.52,4.22-.67,6.33a60.62,60.62,0,0,1-8.23,10.55c-8.89,9.43-19.64,18.49-21.93,32-1,5.75,0,12.38,4.12,16.77a11.26,11.26,0,0,0,7.38,3.67,13.71,13.71,0,0,0,8.32-2.47c5.36-3.51,8.74-9.49,11-15.33a85.43,85.43,0,0,0,4.64-19.85A162.67,162.67,0,0,0,651,389.7,153.5,153.5,0,0,0,661,416q2.67,5.37,5.85,10.47a30.61,30.61,0,0,0,5.92,7.38,11.1,11.1,0,0,0,7.88,3,10.34,10.34,0,0,0,7.68-5c3.82-5.89,4.1-13.91,2.75-20.61a36,36,0,0,0-10.38-18.7c-10.33-10-26.19-15.42-32.51-29.22a23.36,23.36,0,0,1-.85-2.18c-.12-2.14-.29-4.28-.48-6.42a21.26,21.26,0,0,0,1.18,1.79,62.86,62.86,0,0,0,6.09,6.86,114.11,114.11,0,0,0,13.45,12,78.27,78.27,0,0,0,8.44,5.5c.59.33,1.21-.44,1-1a70.68,70.68,0,0,0-22.29-28.19c-1.37-1-2.78-2-4.23-2.89a24.05,24.05,0,0,0-4.55-2.45c-.32-2.39-.67-4.77-1.09-7.15-.12-.72-.26-1.44-.4-2.16-.41-4.41-.81-8.82-1.31-13.22l-.12-1c.68,1.09,1.38,2.16,2.11,3.21a79.86,79.86,0,0,0,6,7.67,89.27,89.27,0,0,0,14.34,12.92A85.62,85.62,0,0,0,682.31,356c5.86,2.46,13.44,4.09,18.26-1.26,3.69-4.1,3.91-10.38,3.37-15.58A73.43,73.43,0,0,0,699.28,320c-4.63-11.77-12.58-22.2-23.45-28.79a60.74,60.74,0,0,0,27.51-.57c2.36,1,4.74,1.89,7.14,2.75a3.13,3.13,0,0,0-.2,1.25,2.56,2.56,0,0,0,1,1.75,2.85,2.85,0,0,0,1.61.61,3.14,3.14,0,0,0,3.08-1.68,2.32,2.32,0,0,0,.23-.93,3,3,0,0,0-.2-1.29,2.73,2.73,0,0,0-.76-1.05,2,2,0,0,0-.57-.34,3.62,3.62,0,0,0-.43-.24,2.55,2.55,0,0,0-2,0,2.09,2.09,0,0,0-.47.3c-2-.64-4-1.24-6-1.79,1.47-.43,2.93-.9,4.37-1.44a59,59,0,0,0,6.1-2.68c.63-.32,1.3-.66,2-1a3.12,3.12,0,0,0,.76.9,3,3,0,0,0,2.19.59,3.26,3.26,0,0,0,2.68-3A2.88,2.88,0,0,0,723,281.31ZM690.53,169.53c3.45,2.61,3,7.08,1.31,10.59-3.5,7.27-10.85,11.92-17.12,16.56a58.05,58.05,0,0,0-9.78,8.68c1.08-2.52,2.22-5,3.5-7.44a100.22,100.22,0,0,1,13.32-19.5,124.7,124.7,0,0,1,8.76-8.9Zm-27.09,32.34c1-4.39,2.23-8.75,3.59-13.05,2.26-7.19,5.43-15.26,12.32-19.21,3.17-1.81,7.17-2.47,10.38-.58a104.54,104.54,0,0,0-26.85,37.53l-1,2.38C662.39,206.58,662.87,204.21,663.44,201.87Zm-22-17.14a32.09,32.09,0,0,1-1.59-14.32,24.25,24.25,0,0,1,1.63-6.83,4,4,0,0,1,2.79-2.48,10.12,10.12,0,0,0-1.75,4.86,17.64,17.64,0,0,0,1.57,8.52c1.34,3.26,3,6.4,4.59,9.56s3.11,6.32,4.66,9.48l2.7,5.47c.59,1.21,1.12,2.54,1.77,3.76A32.07,32.07,0,0,1,641.46,184.73Zm15.75,12.88-2.77-5.43-5.82-11.42c-1.85-3.62-4.16-7.37-4.72-11.47a11.78,11.78,0,0,1,.34-4.87,8.23,8.23,0,0,1,1-2.24c.16-.25.33-.48.5-.72a3.11,3.11,0,0,1,.74.72A14.48,14.48,0,0,1,648,165c.59,1.29,1.16,2.6,1.72,3.91,1.07,2.51,2.06,5,3,7.61a116.77,116.77,0,0,1,4.45,15.79c.49,2.42.85,4.87,1.14,7.32Zm36.7,8c.71.28,1.15.77.83,1.63a4.25,4.25,0,0,1-1.58,1.73c-.88.66-1.82,1.25-2.74,1.86-7.21,4.76-14.68,9.1-21.69,14.15-1.76,1.28-3.49,2.6-5.17,4q1.92-2.1,3.92-4.12a87.53,87.53,0,0,1,16.06-12.91c3.35-2.1,6.86-4,10.37-5.78A.3.3,0,0,0,693.91,205.62Zm-14.8,2.55a28.63,28.63,0,0,1,11.47-2.89,9.7,9.7,0,0,1,3.32.33.28.28,0,0,0-.22,0,99.24,99.24,0,0,0-17.87,10.77,103.22,103.22,0,0,0-15.75,13.85c-1,1.08-1.93,2.21-2.87,3.34C661.9,223,668.27,213.32,679.11,208.17ZM631,144.9a75.37,75.37,0,0,0,4.18-15.39c1-6.17.79-12.46,1.92-18.6a29.2,29.2,0,0,1,3-8.94,10.75,10.75,0,0,1,3.12-3.88,2.69,2.69,0,0,1,2.32-.27.8.8,0,0,0-.09,1.26c.47.47.92,1,1.35,1.48a63.2,63.2,0,0,1,1.33,8.32,49.18,49.18,0,0,1-9.46,33c-4.26,6-9.39,11.24-14.43,16.55A86.72,86.72,0,0,0,631,144.9Zm-7.76,16.71c5.5-5.84,11.3-11.46,16.09-17.92A53.58,53.58,0,0,0,649,122.78,49.94,49.94,0,0,0,650,110a46,46,0,0,0-.61-5.73,26,26,0,0,1,3,9.16,31.82,31.82,0,0,1-2.23,15.66c-4.22,10.86-12.68,19.14-21,27l-6.33,6C623,161.91,623.09,161.75,623.23,161.61Zm1.54-78.26a48.51,48.51,0,0,0,1.41-7.92,29.35,29.35,0,0,0,.08-3.74c.29,1,.57,2.11.8,3.18a50,50,0,0,1,1,8.17,43.51,43.51,0,0,1-2.32,16.4c-3.54,10.06-10.9,18.25-19.09,24.84-11.76,9.47-26.18,16.42-38,26.05q2.31-2.61,4.75-5.08c15.17-15.28,34-27.65,45-46.65A61.56,61.56,0,0,0,624.77,83.35Zm-59,64.58c1.15-3.6,2.36-7.19,3.67-10.74a147.07,147.07,0,0,1,9.08-20.36,74.91,74.91,0,0,1,13.2-17.68c5.4-5.26,11.57-9.63,17.53-14.22,5.33-4.11,10.86-8.56,14.86-14.07-.06,1.32-.16,2.64-.26,3.94a48.87,48.87,0,0,1-1.2,7.31,58.89,58.89,0,0,1-5.35,13.63c-5.08,9.52-12.49,17.58-20.27,25-10.95,10.38-23.32,20.11-32.77,32Q565,150.33,565.78,147.93Zm6.15-118c.75,1.75,1.47,3.52,2.18,5.28,1,2.49,1.9,5,2.69,7.6a90.79,90.79,0,0,1,3.38,16,92.71,92.71,0,0,1-1.67,32.11,126.8,126.8,0,0,1-7,20.59c.17-.65.33-1.29.5-1.93a152.21,152.21,0,0,0,3.66-19.27,167,167,0,0,0,.16-39,148.31,148.31,0,0,0-4-20.68C571.86,30.39,571.9,30.16,571.93,29.94Zm-3.65,21.84c1-6.58,2.37-13.12,3.34-19.71a167.2,167.2,0,0,1,3.88,36.36,161.5,161.5,0,0,1-4.92,38.33c-.88,3.54-1.9,7-3,10.52-.57,1.78-1.18,3.55-1.76,5.32a82.38,82.38,0,0,0,.46-8.46c0-6.61-.51-13.19-.84-19.79C564.74,80.05,566.12,65.9,568.28,51.78Zm-19.41,31c1.81,6.51,1.7,13.69.83,20.33C548,116,542.78,128,537,139.52c.68-2.21,1.33-4.43,1.92-6.66,1.22-4.54,2.31-9.11,3.21-13.73a178,178,0,0,0,3.15-28.19q.12-3.91.1-7.84c0-2.07,0-4.21-.14-6.3A11.23,11.23,0,0,1,548.87,82.79Zm-28,31.06c-2.36-10.36-1.67-21.5,5.26-30a31.74,31.74,0,0,1,8.6-7.25c-2.22,3.16-3.11,7.69-3.8,11.1a118.34,118.34,0,0,0-2.28,21.8,157.83,157.83,0,0,0,2.92,31.8C527.59,132.27,523,123.47,520.82,113.85Zm13.52,28.81a169.51,169.51,0,0,1-3.06-24.58A129.81,129.81,0,0,1,532,97.22q.6-5.18,1.68-10.28c.62-2.91,1.26-6,2.94-8.53,1.53-2.3,4-3.71,6.76-2.69a5.59,5.59,0,0,1,1,.46c-.05,2,.1,3.94.12,5.91q0,3.54-.09,7.1-.25,7-1.06,14a178.51,178.51,0,0,1-5.2,27.52c-.71,2.56-1.47,5.09-2.29,7.61-.41,1.26-.84,2.52-1.28,3.77C534.47,142.31,534.4,142.48,534.34,142.66Zm-58-26.53a43.28,43.28,0,0,1-3.26-29.74A39.47,39.47,0,0,1,477.41,76c0,.8,0,1.6,0,2.4.15,2.71.33,5.42.56,8.13.45,5.28,1.05,10.54,1.94,15.76,1.77,10.38,4.78,20.65,10,29.86.47.84,1,1.65,1.48,2.47A56.66,56.66,0,0,1,476.33,116.13Zm7-10.23a165.54,165.54,0,0,1-2.46-17.6c-.27-3-.5-5.94-.72-8.91,0-.59-.1-1.17-.15-1.76,7.18,15.55,7.52,33.18,11.41,49.72.39,1.66.84,3.32,1.32,5A87.09,87.09,0,0,1,483.36,105.9Zm12.29,31c-.25-.68-.5-1.35-.73-2q-1.14-3.45-2-7c-1.1-4.51-1.9-9.08-2.62-13.66-1.46-9.2-2.4-18.57-4.92-27.56a63.19,63.19,0,0,0-5.54-13.77,39.33,39.33,0,0,1,13.27,23.74c1.77,10.76.15,21.71,1.43,32.51a50.61,50.61,0,0,0,1.75,8.7C496.07,137.52,495.87,137.2,495.65,136.89Zm19,235.37a101.28,101.28,0,0,1,22.27-17.53c7.89-4.56,16.67-7.49,24.42-12.27-4.85,3.91-9.76,7.73-14.81,11.36-6.46,4.63-13.27,8.81-20.12,12.84-3.69,2.18-7.46,4.22-11.23,6.26A3.83,3.83,0,0,1,514.61,372.26ZM526.3,372c-2.16.83-6.15,2.47-9,1.93a251.73,251.73,0,0,0,38-25.32c2.09-1.66,4.13-3.38,6.15-5.12C551.54,355.05,540.76,366.49,526.3,372Zm12.24,39.67a39,39,0,0,0-.8,6.18,21.34,21.34,0,0,0,.13,5.41l0,0c-3.75-7.18-.28-15.76,3.1-22.45,4.21-8.31,8.54-16.56,12.81-24.83.37-.73.76-1.45,1.14-2.18-.73,2.14-1.54,4.25-2.48,6.32-1.61,3.55-3.44,7-5.26,10.45C543.6,397.35,540.14,404.2,538.54,411.69Zm6.05,1.78a83.2,83.2,0,0,1-5.35,8l0-.2a25.26,25.26,0,0,1-.13-3,33.16,33.16,0,0,1,.58-5.36,53.66,53.66,0,0,1,3.29-10.8c2.9-7,6.85-13.59,10-20.5a63.84,63.84,0,0,0,3.31-8.43A91,91,0,0,1,544.59,413.47ZM567.27,359a45.13,45.13,0,0,1,3.2,9.82c1.57,7.34,1.87,14.89,3.42,22.24a49.79,49.79,0,0,0,1.32,5l-.2-.3q-1.37-2.16-2.61-4.4a66.88,66.88,0,0,1-4.18-9,75.59,75.59,0,0,1-4.5-19.51q-.27-2.83-.33-5.69c0-1.37,0-2.75,0-4.13A28.3,28.3,0,0,1,567.27,359Zm-3.39,12.7a86.26,86.26,0,0,0,6.64,19.24c.59,1.24,1.23,2.45,1.9,3.65A51.19,51.19,0,0,1,561.74,357c.11-.94.26-1.87.42-2.8a56,56,0,0,0,.23,7.35A77.72,77.72,0,0,0,563.88,371.7Zm3.64,77.92c.07-1.64.16-3.27.34-4.9a74.1,74.1,0,0,1,2-10.76,79,79,0,0,1,8.24-20,76.4,76.4,0,0,1,13.58-17.11c5.66-5.31,12.11-9.36,18.9-13.07,4.14-2.27,8.31-4.49,12.27-7.05,1.68-1.09,3.31-2.26,4.87-3.51-8.12,9.59-16.89,18.56-25.57,27.66-9.4,9.84-18.42,20-25.83,31.43A92.11,92.11,0,0,0,567.52,449.62Zm47.53-41.19a86.42,86.42,0,0,1-14.19,16.11c-5.59,4.93-11.89,8.82-18.05,13-2,1.32-3.9,2.69-5.79,4.14,3.3-4,6.86-7.69,10.51-11.33,7.51-7.46,15.38-14.58,22.33-22.58a123.6,123.6,0,0,0,17.8-27.07A90.92,90.92,0,0,1,615.05,408.43Zm10.86-28.68a123.28,123.28,0,0,1-16,24.73c-6.73,8.06-14.51,15.14-22,22.46-4.16,4.07-8.25,8.22-12,12.65-1.65,1.93-3.27,3.94-4.81,6a118.83,118.83,0,0,1,16.73-26.89c8.85-11,19-20.86,28.62-31.13,4.25-4.52,8.44-9.12,12.31-14C627.81,375.68,626.89,377.73,625.91,379.75Zm-4.92,74c-4.57-3.69-5.58-10.32-4.71-15.8,2.06-13,13-21.89,21.54-30.88a75.69,75.69,0,0,0,6.26-7.37c-2.48,5.19-6.05,10-9.45,14.45-6.1,8-12.57,16.64-13.3,27.08a24.66,24.66,0,0,0,.68,8,15.58,15.58,0,0,0,3,6.33A8.4,8.4,0,0,1,621,453.78Zm27.51-40a118,118,0,0,1-3.48,20c-1.49,5.3-3.64,10.8-7.1,15.2-2.2-16.26,8-30.88,11.33-46.35C649.12,406.31,648.88,410,648.5,413.73Zm27.78,19.72a18.56,18.56,0,0,1-6-6,93.62,93.62,0,0,1-5.82-9.85,156.37,156.37,0,0,1-13.18-36v0c6.48,12.56,19.46,22.5,24.84,35.64a27.68,27.68,0,0,1,1.93,16,.87.87,0,0,0,.6,1.05A7.82,7.82,0,0,1,676.28,433.45Zm-4-44.91c5.73,4.19,11,9.06,14,15.59a32.74,32.74,0,0,1,2.38,20.7c-.68,3-2.11,6.28-4.64,8.22a6.66,6.66,0,0,1-5,1.31,1,1,0,0,0,1.1-.85c2-9.76-2.26-19.46-7.85-27.26-6.18-8.6-14.23-15.8-19.4-25.12-.58-1.05-1.11-2.14-1.61-3.24a18.15,18.15,0,0,0-1-4.47,17.83,17.83,0,0,0-1.38-2.81c-.13-.67-.25-1.33-.38-2C654.29,377,664.16,382.62,672.27,388.54Zm-24.6-12.22c0,.06,0,.13,0,.19a1.84,1.84,0,0,1-.05.25h0C647.66,376.61,647.67,376.46,647.67,376.32Zm4.77-23.93a74.72,74.72,0,0,1,7,5.57,66.35,66.35,0,0,1,11.39,13.4,61.12,61.12,0,0,1,3.78,6.81l-.89-.59c-1.94-1.93-4-3.74-6-5.65-2.73-2.67-5.41-5.4-8-8.21s-5-5.57-7.41-8.44c-1.22-1.46-2.43-2.93-3.61-4.41l-1.25-1.57C649.11,350.32,650.84,351.27,652.44,352.39Zm-5-.52c1.22,1.46,2.46,2.9,3.71,4.34q3.76,4.29,7.73,8.42c2.59,2.68,5.22,5.33,7.9,7.92l.87.85a100.73,100.73,0,0,1-8.43-7c-2.68-2.51-5.28-5.13-7.75-7.85a25.24,25.24,0,0,1-4.93-7.18c0-.21,0-.42-.07-.63Zm0,42.53c.52-1,1-2,1.45-3a65,65,0,0,1-1,9.71,88.26,88.26,0,0,1-3.63,12.11c-2.91,7.93-6.37,15.72-7.79,24.1a37,37,0,0,0,0,13.39l0,.06c-2.47,2.6-5.89,4.74-9.35,5a.79.79,0,0,0,0-.64c-.52-1.06-1.21-2-1.73-3.08a17.82,17.82,0,0,1-1.21-3.32,22.56,22.56,0,0,1-.59-7.14,33.44,33.44,0,0,1,4.35-13.77c4.87-8.85,12.16-16.1,16.66-25.17A36.19,36.19,0,0,0,647.42,394.4Zm70-153.38a71.15,71.15,0,0,1-20,28.64,72.23,72.23,0,0,1-30.92,16l-1.65.39a110.38,110.38,0,0,0-19.28-4.93,108.18,108.18,0,0,0,61-29.19,96.26,96.26,0,0,0,11.88-13.53C718.09,239.33,717.72,240.24,717.43,241Zm1.59-4.75a128.52,128.52,0,0,1-11.53,13.46,107.26,107.26,0,0,1-49.06,27.18,107.8,107.8,0,0,1-21.08,2.87.45.45,0,0,0-.11,0l-1.58-.22c.8-.95,1.61-1.89,2.45-2.8a18.77,18.77,0,0,1,3.3-2.11,47.7,47.7,0,0,1,10.24-3.26,165.06,165.06,0,0,0,19.5-5.74,154.53,154.53,0,0,0,36-19.11c4.36-3.11,9.8-6.83,12-12A8.4,8.4,0,0,1,719,236.27ZM641.2,273.74c1.41-1.31,2.84-2.59,4.34-3.8a103.71,103.71,0,0,1,15.68-10.27c11.76-6.39,24.2-11.54,36.41-17q5.75-2.57,11.48-5.17c1.91-.87,3.82-1.74,5.71-2.64.94-.45,1.9-.87,2.83-1.34a16.4,16.4,0,0,1-3.75,5.88,55.73,55.73,0,0,1-6.8,5.54,152.22,152.22,0,0,1-17.49,11,161,161,0,0,1-38.29,14.56A49,49,0,0,0,641.2,273.74Zm75.51-43.39a5.59,5.59,0,0,1,1.63,1.43.43.43,0,0,0-.09.13c-1.1.38-2.17.84-3.25,1.3q-2.61,1.09-5.22,2.24-5.21,2.3-10.4,4.61c-6.83,3.05-13.66,6.08-20.49,9.15-11.47,5.14-23,10.56-33.16,18a80.28,80.28,0,0,0-6.8,5.55,61.56,61.56,0,0,1,5.52-6.61,108,108,0,0,1,15.06-13.45,118.88,118.88,0,0,1,36.09-18A146.23,146.23,0,0,1,716.71,230.35ZM638.6,204a40,40,0,0,1,12.59,33.45,44.64,44.64,0,0,1-.87,5.15c-.06.25-.13.5-.2.75a21.07,21.07,0,0,0-.21-2.37,83.24,83.24,0,0,0-2.79-16.44A96.72,96.72,0,0,0,638.6,204Zm9.39,30.4c-3.09-7-8.58-13-10.12-20.67a17.28,17.28,0,0,1,.09-7.84,76.64,76.64,0,0,1,8.12,18.94,81.51,81.51,0,0,1,2.29,10.54C648.24,235,648.13,234.67,648,234.36Zm5.82,13c10.4-9,22.8-15.64,36.36-18.2a61.77,61.77,0,0,1,20.79-.47,22.48,22.48,0,0,1,4.37,1A96.08,96.08,0,0,0,697.46,233a119.16,119.16,0,0,0-19.26,7.16,122.29,122.29,0,0,0-33.7,23.6c-3.58,3.56-7.84,7.63-10.14,12.41-.81-5.07,2.44-10.27,5.45-14.13A102.07,102.07,0,0,1,653.81,247.36Zm-8.58.06a21.44,21.44,0,0,0,1.3,2.63,11.15,11.15,0,0,1-.59,1.07.6.6,0,0,0-.08.21c-2,2-4,4.15-5.83,6.35a48,48,0,0,0-6.21,8.76c-.28-.26-.86-.18-.88.28a5.61,5.61,0,0,1-.31,1.65.63.63,0,0,0-.53.11l-.57.33c-.07-2.76-.08-5.52,0-8.29a84.2,84.2,0,0,1,3.18-19.74c.88-3.14,1.9-6.25,3-9.33A153.68,153.68,0,0,1,645.23,247.42ZM631.8,283.73l-.06-.05c0-.12-.09-.24-.14-.36h0Zm-.12-11.32.12-.1c0,.18-.07.36-.09.54ZM621.73,224A109.8,109.8,0,0,1,623,209.46c1.22,1.48,2.42,3,3.58,4.52a138.13,138.13,0,0,1,10.61,16.39,85,85,0,0,0-5.78,19,99.89,99.89,0,0,0-2,20.4l-.29.09a136.45,136.45,0,0,1-5-18.15A128.46,128.46,0,0,1,621.73,224Zm-18.88-28.81a5.44,5.44,0,0,1,4.43-.7c2.71.8,4.83,3.22,6.76,5.15,2.61,2.61,5.1,5.34,7.49,8.15a.38.38,0,0,0,0,.15,144.49,144.49,0,0,0-.8,28.28A130.39,130.39,0,0,0,626,263.91c.64,2.13,1.36,4.21,2.13,6.29a15,15,0,0,1-2.67.36c-1.24-1.49-2.45-3-3.59-4.6a101.32,101.32,0,0,1-19-70.82Zm-2.94,2.66h0a11.06,11.06,0,0,1,.79-.9,104.05,104.05,0,0,0,3.5,34.59,108.89,108.89,0,0,0,15.3,33.14c1.39,2,2.86,4,4.4,5.95a17.89,17.89,0,0,1-3.52-.51,25.94,25.94,0,0,1-5.58-2.24c-.89-.47-1.75-1-2.64-1.45l-.35-.18a67,67,0,0,1-6.23-6.49,61.41,61.41,0,0,1-4.69-6.46,49.64,49.64,0,0,1-3.67-9.87c-2.55-10-2-20.28-.34-30.34C597.72,207.92,598.91,202.88,599.91,197.8Zm8,68.23a87.84,87.84,0,0,0-9.63-4.07,62.91,62.91,0,0,0-30.76-3.07c.93-.47,1.86-.94,2.78-1.44q4.07-2.22,7.94-4.77a39.75,39.75,0,0,0,7.27-5.62l.18-.36.06,0h.06l.37-.06a1.73,1.73,0,0,0,.88-.42c1.63.7,3.29,1.34,5,1.89,1.19.39,2.38.72,3.59,1a61.09,61.09,0,0,0,4.89,8.23A68.3,68.3,0,0,0,607.86,266Zm-9.53-65.86c-.89,3.66-1.64,7.36-2.3,11.06a103.17,103.17,0,0,0-1.75,16.44,65.63,65.63,0,0,0,1.46,15.25,54.26,54.26,0,0,1-3.33-13.66,51,51,0,0,1,.88-16.34,40.87,40.87,0,0,1,5-12.76Zm-18.89-46.32a6.06,6.06,0,0,1,3.27,1.11c2.51,1.76,4.17,4.65,5.81,7.17,6.78,10.44,12.11,23.27,8.19,35.65-.3.47-.59.93-.86,1.4a46.05,46.05,0,0,0-3.59,7.82,51.26,51.26,0,0,0-2.74,17.1,56.38,56.38,0,0,0,3.31,18.51,19.89,19.89,0,0,1-1-1.89c-1.26-2.79-2.19-5.75-3.2-8.64-2.28-6.5-4.6-13-6.48-19.64-3.56-12.61-5.76-25.91-5.38-39a89.38,89.38,0,0,1,.88-10.34c.24-1.68.53-3.36.86-5C578.81,156.64,579.16,155.25,579.44,153.85Zm-5.56,1.67.35-.21a11.34,11.34,0,0,1,4-1.41,49.65,49.65,0,0,0-1.69,7.73,90.93,90.93,0,0,0-1,9.59,110.52,110.52,0,0,0,.69,19.16,155.53,155.53,0,0,0,4,20.49c1.79,6.89,3.69,13.74,6,20.49,1.16,3.47,2.2,7,3.69,10.37a21.3,21.3,0,0,0,1.46,2.7l-.43-.17a16.39,16.39,0,0,0-2.61-1.89,75.49,75.49,0,0,1-9.81-10.85,69.87,69.87,0,0,1-11.92-56.27,71.2,71.2,0,0,1,3-10.34C570.83,161.67,572.48,158.66,573.88,155.52Zm-11,10.16a40.83,40.83,0,0,1,7.5-7.82c-.79,1.66-1.48,3.38-2.13,5a72.46,72.46,0,0,0,7.83,67.2,74.62,74.62,0,0,0,7.2,9l-.91-.6c-.65-.44-1.28-.91-1.93-1.36-2.21-2-4.4-4.12-6.49-6.27a72.05,72.05,0,0,1-12.75-17.16,51,51,0,0,1-3.28-37A44.6,44.6,0,0,1,562.91,165.68Zm-6,10.95a55.55,55.55,0,0,0-2.54,15.92,45.65,45.65,0,0,0,.26,5.13c-.19-.68-.38-1.37-.56-2.06s-.35-1.58-.51-2.4A49.94,49.94,0,0,1,556.9,176.63Zm-20.82,13.65a46.94,46.94,0,0,1,13.06,11.3c.17.42.36.83.52,1.25a.29.29,0,0,0,.52.08q1,1.26,1.83,2.58c.16.76.35,1.51.54,2.25a153.35,153.35,0,0,1-12.21-9.34q-3.95-3.39-7.57-7.12c-1.19-1.22-2.36-2.47-3.49-3.75-.17-.19-.34-.4-.51-.61A43.91,43.91,0,0,1,536.08,190.28Zm-10.55-4.37c.74.94,1.63,1.82,2.4,2.68q1.79,2,3.64,3.86,3.67,3.74,7.65,7.14a93.09,93.09,0,0,0,13.84,9.92,53.84,53.84,0,0,0,3.33,8.37c-3.35-1.34-6.73-2.61-10.07-4-4-1.68-8-3.47-12-5.38A206.53,206.53,0,0,1,511,195.24c-4.21-2.77-8.23-5.75-12.28-8.73,0,0-.09,0-.13-.06A47.88,47.88,0,0,1,525.53,185.91Zm-36.44,4.8a43.44,43.44,0,0,1,8.15-3.79.94.94,0,0,0,.27,1.23A178.48,178.48,0,0,0,520,203a198.4,198.4,0,0,0,24.38,11.81,116.89,116.89,0,0,0,12.69,4.42c.13.23.26.47.4.7a25.73,25.73,0,0,0,4.74,8.79c-1.8-.36-3.62-.65-5.4-1-3-.56-6-1.14-9-1.76-6-1.26-12-2.69-17.92-4.42-10.8-3.17-21.36-7.47-30.82-13.65a81.57,81.57,0,0,1-14.27-11.88,1.26,1.26,0,0,0-.31-.22A9.64,9.64,0,0,1,489.09,190.71Zm4.1,23.1a47.93,47.93,0,0,1-6.1-7.54,16.51,16.51,0,0,1-2.88-7.86c15.7,16.55,38.67,24.05,60.45,28.43,3.49.7,7,1.34,10.5,1.95,2.71.47,5.48,1.05,8.25,1.36a39.79,39.79,0,0,0,4.66,4.31c-13.58.17-27.25,0-40.57-2.93C514.91,228.75,502.33,223.11,493.19,213.81Zm29.86,19.54.15,0c14.46,3.86,29.59,4.1,44.48,3.94l4.13-.06,1.43.92c-2.64.18-5.25.66-7.87,1.07l-8.65,1.38q-8.76,1.39-17.52,2.77c-9.49,1.48-19.15,2.92-28.78,2.18a48.49,48.49,0,0,1-14-3.13A80.63,80.63,0,0,1,523.05,233.35Zm-39.72,19.29c1.18-2.12,3.22-3.66,5.12-5.09s3.75-2.62,5.7-3.81c9,3.83,19,4.31,28.59,3.43,10.72-1,21.34-3.19,32-5l10-1.68a87.2,87.2,0,0,0,9.35-1.82,64.84,64.84,0,0,0,6.1,4A173.33,173.33,0,0,1,544,255.13a155.41,155.41,0,0,1-38.95,3.47,198.59,198.59,0,0,1-22-2.27,1,1,0,0,0-.47.05A6.4,6.4,0,0,1,483.33,252.64Zm43.92,15.3a105.55,105.55,0,0,1-31-1.7c-4.75-1-10.43-2.35-12.87-7a9.41,9.41,0,0,1-.41-.93,146.59,146.59,0,0,0,39.13,1.58,163.8,163.8,0,0,0,38.67-8.06A134.36,134.36,0,0,0,581,243.19c1.18.66,2.37,1.29,3.58,1.88a9.2,9.2,0,0,0-1.09.54,6.41,6.41,0,0,0-1.67,1.49c-1.35.94-2.66,1.92-4,2.85-2.09,1.42-4.23,2.77-6.42,4a106.64,106.64,0,0,1-14.08,6.79A109.35,109.35,0,0,1,527.25,267.94Zm19.51,2.7a42.58,42.58,0,0,1,14.8-7.74c10.84-3.3,22.57-2.72,33.35.49a84.65,84.65,0,0,1,16.77,7.16c1.39.77,2.76,1.58,4.11,2.41a84.55,84.55,0,0,0,9.2,6l.54.37A106.46,106.46,0,0,0,611.67,275a148.11,148.11,0,0,0-17.11-3.2,156.63,156.63,0,0,0-34.29-.5A146.71,146.71,0,0,0,543.45,274,24.73,24.73,0,0,1,546.76,270.64Zm-4.91,5.53a157.82,157.82,0,0,1,67.17,0c5.44,1.19,10.78,2.74,16.12,4.3-10-.73-20.1,1.34-30.06,2.36a202,202,0,0,1-35.81.34c-6.42-.48-12.85-.94-19.26-1.47A12.86,12.86,0,0,1,541.85,276.17Zm7,22.89c-.28-.3-.58-.59-.86-.9-3.45-3.92-7.24-8.79-7.87-14.16,11.54.87,23.07,1.38,34.65,1.35,5.88,0,11.77-.22,17.63-.74s11.5-1.41,17.26-2.11a120.52,120.52,0,0,1,16-1c-1.94.82-3.86,1.7-5.72,2.68-4.14,1.41-8.19,3.15-12.27,4.7q-7.3,2.79-14.67,5.43c-4.81,1.72-9.63,3.43-14.5,5a57.33,57.33,0,0,1-14.71,2.88,28.88,28.88,0,0,1-14.43-3A.67.67,0,0,0,548.81,299.06ZM560,308a42.62,42.62,0,0,1-8.14-5.87c7.67,2.7,16.18,1.59,23.92-.57,5.09-1.42,10.07-3.21,15.05-5s9.94-3.57,14.86-5.49c2.5-1,5-1.92,7.58-2.93a74.51,74.51,0,0,0-15.88,14.41l-.57.52c-1.09,1-2.21,2-3.23,3.11-.85.74-1.71,1.45-2.59,2.12-.51.39-1,.76-1.54,1.13l-.15.11C580,313.88,569,312.86,560,308Zm22.82,51.29a65.53,65.53,0,0,1,.64-22.56A74.6,74.6,0,0,1,591,315.26a70.82,70.82,0,0,1,5.84-9.14c.42-.42.81-.84,1.23-1.24q3.45-3.33,7.19-6.35c3.94-3.17,8.13-6,12.33-8.8a26,26,0,0,1,7.83-2.1,210.53,210.53,0,0,0-18,24.51A221.1,221.1,0,0,0,590,345.63c-2.31,5.67-4.47,11.46-6.25,17.34A24.09,24.09,0,0,1,582.84,359.25Zm5.1,9.95a11.2,11.2,0,0,1-2.83-3.24,258.94,258.94,0,0,1,13.43-34.43A227.47,227.47,0,0,1,618,299.1c2.79-3.92,5.74-7.74,8.79-11.47.16,0,.32,0,.48,0a3.28,3.28,0,0,0,1.1.3h.48a6.8,6.8,0,0,1,1,.37,162,162,0,0,1-7.06,30.39,144.56,144.56,0,0,1-17.51,35.4,163.2,163.2,0,0,1-13.51,17A11.65,11.65,0,0,1,587.94,369.2Zm24.65-3.05c-4.71,3.08-10.1,5.36-15.72,5.54a17.26,17.26,0,0,1-2.59-.1,157.86,157.86,0,0,0,34.39-69.14,129.46,129.46,0,0,0,2.08-13.66A12.44,12.44,0,0,1,635,293a59.63,59.63,0,0,1,.66,23c-1.82,11.59-6.51,22.65-12.35,32.76-1.61,2.8-3.3,5.54-5,8.25s-3.79,5.53-5.51,8.39A1,1,0,0,0,612.59,366.15Zm26-43.95c-.22,2.48-.42,5-.83,7.44-.09.56-.21,1.12-.31,1.68-4.14,12.27-11.12,24.14-21.25,32.19,1-1.53,2-3.09,2.91-4.63q2.34-3.75,4.53-7.58a137.9,137.9,0,0,0,8.07-16.3c4.47-11,6.71-22.74,5.54-34.63-.12-1.23-.29-2.45-.49-3.67a37,37,0,0,1,2.27,12.06A100.57,100.57,0,0,1,638.64,322.2Zm31,24.45a90.28,90.28,0,0,1-25.73-26c-.45-.67-.88-1.33-1.33-2,1.47-10.31.54-20.88-4.21-30.22,1.93,1.79,3.85,3.57,5.69,5.45,4.18,4.27,8.15,8.75,11.91,13.39a189.32,189.32,0,0,1,19.87,29.53q2.37,4.43,4.5,9,1.08,2.28,2.08,4.57c.58,1.33,1.12,2.7,1.81,4A74.16,74.16,0,0,1,669.65,346.65Zm26.52,8.59c-3,1.39-6.58.85-9.66-.12-.45-.14-.89-.3-1.34-.45a45.7,45.7,0,0,0-3.18-8q-1.87-4.17-4-8.24-4.06-8-8.75-15.64a180,180,0,0,0-21.95-28.72c-2-2.17-4.08-4.31-6.19-6.39,2.66,1.77,5.28,3.62,7.83,5.55a168.67,168.67,0,0,1,14.79,12.57,157.37,157.37,0,0,1,24.47,29.8,198.12,198.12,0,0,1,10,18.25A8.11,8.11,0,0,1,696.17,355.24Zm4.79-5.72a11,11,0,0,1-2.2,3.8,148.62,148.62,0,0,0-19.23-32.13,163.24,163.24,0,0,0-27.38-28q-4.29-3.44-8.81-6.55l-2.18-1.51c1.28.08,2.57.18,3.85.3,2,.82,4.06,1.68,6.06,2.62a126.83,126.83,0,0,1,16.19,9.13,114.11,114.11,0,0,1,27.66,25.44,38.36,38.36,0,0,1,5.83,10.4C701.79,338.32,702.75,344.3,701,349.52Zm-6.23-34.17a68.62,68.62,0,0,1,4.88,12.83c-.44-.83-.91-1.64-1.39-2.41a91.45,91.45,0,0,0-13-15.75,120.22,120.22,0,0,0-30.78-22.5c-.62-.32-1.25-.6-1.88-.91,1.89.33,3.78.6,5.68.79,1.11.24,2.23.46,3.35.62a.78.78,0,0,0,.79.36c.52,0,1-.11,1.55-.18,1.54.56,3.07,1.16,4.57,1.83A52.13,52.13,0,0,1,684,300.42,56.38,56.38,0,0,1,694.73,315.35Z" transform="translate(-60.65 -26.57)"/><path class="cls-1" d="M517.79,133.8a3.13,3.13,0,0,0-2.18-1.81h-.11a1.37,1.37,0,0,0-1.17-.05,2,2,0,0,0-1.31.78,4,4,0,0,0-.54,2.53c0,1.51.79,3.36,2.36,3.87a2.59,2.59,0,0,0,2.58-.54,3.14,3.14,0,0,0,1.05-2.29A5.2,5.2,0,0,0,517.79,133.8Z" transform="translate(-60.65 -26.57)"/><path class="cls-1" d="M522.46,144.08a3.18,3.18,0,0,0-.14-.53.84.84,0,0,0-.08-.2,2.88,2.88,0,0,0-.7-.89,1.42,1.42,0,0,0-.33-.21,2.47,2.47,0,0,0-.36-.19,2.58,2.58,0,0,0-1.14-.14,2,2,0,0,0-.54.14,1.89,1.89,0,0,0-.5.28,1.1,1.1,0,0,0-.23.2h0a1.24,1.24,0,0,0-.18.14,2.82,2.82,0,0,0-.67.87,1,1,0,0,0-.09.21,3.7,3.7,0,0,0-.14.55,2.55,2.55,0,0,0,.14,1.1.64.64,0,0,0,.08.19,2.69,2.69,0,0,0,.28.46l0,0a1,1,0,0,0,.14.17,0,0,0,0,0,0,0,.71.71,0,0,0,.31.26h0s0,0,0,0a2.92,2.92,0,0,0,.68.35,4.27,4.27,0,0,0,.54.13,3.62,3.62,0,0,0,.57,0l.19,0a3.19,3.19,0,0,0,.55-.16,2.5,2.5,0,0,0,.64-.41,4.59,4.59,0,0,0,.37-.39,3.33,3.33,0,0,0,.28-.48,3,3,0,0,0,.24-.76,1.36,1.36,0,0,0,0-.2A3.75,3.75,0,0,0,522.46,144.08Z" transform="translate(-60.65 -26.57)"/><path class="cls-1" d="M515.61,142.16l-.05-.09,0,0h0c0-.07-.09-.14-.13-.22a1,1,0,0,0-.41-.3l-.23-.13a.76.76,0,0,0-.39-.06.68.68,0,0,0-.37.07.7.7,0,0,0-.31.22.62.62,0,0,0-.21.31,2.33,2.33,0,0,0-.07.25,1,1,0,0,0,.07.51l.13.21a1,1,0,0,0,.4.31l.23.11a1,1,0,0,0,.6.06l.11,0a.81.81,0,0,0,.39-.17.61.61,0,0,0,.21-.24.72.72,0,0,0,.11-.32A.79.79,0,0,0,515.61,142.16Z" transform="translate(-60.65 -26.57)"/><path class="cls-1" d="M548.41,153.51a3,3,0,0,0-1.59-1.59l-.24-.06a1.48,1.48,0,0,0-.38-.23h0a1,1,0,0,0-.53-.39.85.85,0,0,0-.92.36,2.38,2.38,0,0,0-.91.46,4.09,4.09,0,0,0-1.12,1.74,4.72,4.72,0,0,0-.33,2,2.77,2.77,0,0,0,1.06,2,3.09,3.09,0,0,0,2.16.6,3.49,3.49,0,0,0,2.85-2.43A3.62,3.62,0,0,0,548.41,153.51Z" transform="translate(-60.65 -26.57)"/><path class="cls-2" d="M153.89,460.64A105.41,105.41,0,0,0,182,404.73c1.44-8.82,1.69-18.16-1.8-26.38s-11.42-15-20.35-15c-8.15,0-15.36,5.56-20.25,12.08-8.09,10.77-11.48,24.55-11.46,38s3.24,26.75,7.32,39.59c-7.26-20.77-28.61-35.74-50.6-35.48-9.25.11-19.63,3.69-23.09,12.27-2.71,6.73-.16,14.71,4.71,20.08s11.67,8.56,18.5,11c11.76,4.19,24.09,6.55,36.35,8.9-13.84,3.53-28,7.22-39.7,15.45s-20.47,22.13-18.54,36.28c.81,5.92,4.33,12.26,10.23,13.26,3.85.66,7.65-1.12,11.12-2.93a289.92,289.92,0,0,0,55-37.18c-3.09,12.53,3.47,25.67,12.58,34.82,6.14,6.16,13.95,11.27,22.63,11.76s18-4.85,19.91-13.35c1.34-6.13-1.28-12.41-4.39-17.87a93.78,93.78,0,0,0-32.71-33.6,75,75,0,0,0,57.89-14.4c4.54-3.51,9-8.63,7.93-14.26s-7.34-8.72-13-9.91a51.06,51.06,0,0,0-39.76,8.36" transform="translate(-60.65 -26.57)"/><path class="cls-2" d="M244.17,424.22c12.7-23.07,10.75-53.43-4.81-74.69-4.85-6.63-11.17-12.56-19-15s-17.35-.68-22.44,5.77c-4.64,5.87-4.78,14.07-4,21.51a116.08,116.08,0,0,0,32.93,68.93,90.39,90.39,0,0,0-37.29-8.24c-4.06,0-8.2.26-12,1.8s-7.1,4.53-8.19,8.44c-1.5,5.4,1.72,11.27,6.39,14.36s10.48,3.92,16.08,4.12a87.78,87.78,0,0,0,48.93-12.93c-4.8,10.59-8.9,22-8,33.57s8,23.4,19.17,26.57c6.63,1.87,13.8.55,20.21-2,7.77-3,15.5-8.84,16.6-17.11,1-7.79-4.16-15.06-10-20.28s-12.8-9.46-17.25-15.94c15.9,13.72,41.61,14.27,58.08,1.25s21.87-38.16,12.2-56.79c-4.75-9.15-13.64-17-23.94-17.09-8.43-.08-16,4.87-22.65,10.1a178.82,178.82,0,0,0-36.53,39" transform="translate(-60.65 -26.57)"/><path class="cls-1" d="M221,285.37c.73-9.52-.27-20-6.82-27-8.15-8.65-22.78-8.58-32.81-2.19s-16,17.62-19.36,29a92.86,92.86,0,0,0-.81,48.93c2,7.8,6.43,21.61,16.17,22.28,9.09.62,17.4-10.56,22.31-16.83A101.2,101.2,0,0,0,221,285.37Z" transform="translate(-60.65 -26.57)"/><path class="cls-1" d="M148,315.46c-2.82-6.67-6.55-13.7-13.2-16.56-8.9-3.84-19.15,1.43-26.27,8-5.23,4.85-9.78,10.61-12.16,17.33S94,338.74,97.46,345c3.63,6.61,10.5,10.74,17.29,14,9.92,4.78,33.8,18.27,41.55,4.56S153.33,328,148,315.46Z" transform="translate(-60.65 -26.57)"/><path class="cls-1" d="M223.4,533.27A68.65,68.65,0,0,0,200,612.11c1.84,5,4.39,9.93,8.53,13.29s10.16,4.81,14.94,2.44c4-2,6.43-6.2,8.21-10.32,8.86-20.59,7.43-43.94,5.84-66.29.51,7.49,4.2,14.49,9.05,20.23s10.84,10.38,16.78,15c5.67,4.38,11.43,8.82,18.1,11.45s14.46,3.26,20.84,0c10.36-5.26,13.68-19.58,9.27-30.33s-14.68-18.11-25.51-22.34-22.45-5.85-33.72-8.67c23.29-2.07,44.85-17.85,53.86-39.42,3.43-8.23,5.1-17.72,1.83-26-4.38-11.12-17.16-17.5-29.08-16.64s-22.75,7.84-30.65,16.81a68.37,68.37,0,0,0-16,54.9,94.1,94.1,0,0,0-31.21-49c-5.66-4.65-13.32-8.79-20-5.79-4.56,2-7.26,7-7.78,12s.82,9.95,2.44,14.68c6.81,19.87,19.64,38.41,38.21,48.23" transform="translate(-60.65 -26.57)"/><path class="cls-2" d="M164.39,200.9a61.71,61.71,0,0,0-18.21-38.34,4.54,4.54,0,0,0-2.81-1.6c-2.17-.07-3.22,2.6-3.59,4.74a117.44,117.44,0,0,0,1.67,47.59,114.5,114.5,0,0,0,8,22.57c4.85,10.09,9.58-3.42,11.47-8.63A61.6,61.6,0,0,0,164.39,200.9Z" transform="translate(-60.65 -26.57)"/><path class="cls-2" d="M104.15,253c-3.32-1.08-7.09-1.84-10.19-.23-3.55,1.85-5,6.39-4.37,10.34s3,7.38,5.57,10.47c10.52,12.73,26.14,22.74,42.52,25.74,3.16.58,6.71.91,6.64-3.07-.06-3.47-2.55-8-4-11.05a63.56,63.56,0,0,0-13.7-18.73A60.09,60.09,0,0,0,104.15,253Z" transform="translate(-60.65 -26.57)"/><path class="cls-2" d="M173.79,575.19c-1.52,12.53,1.5,25.1,3.78,37.51s3.78,25.54-.58,37.38c-1.17,3.18-3.12,6.52-6.4,7.37-4,1-7.81-2.08-10.26-5.37-7.78-10.45-9.26-24.64-6.38-37.34s9.7-24.17,17.31-34.75" transform="translate(-60.65 -26.57)"/><path class="cls-4" d="M203.61,199.89a1,1,0,0,0-1.19.07l-.55.49a61.61,61.61,0,0,0-14.54,9,73.77,73.77,0,0,0-12.72,13.05A75.93,75.93,0,0,0,159,266.26c-.66,2.18-1.29,4.36-1.84,6.57-.93,3.67-1.66,7.36-2.25,11.08-.42-4.73-.91-9.46-1.68-14.14a133.37,133.37,0,0,1,1.05-15.34c.81-6.31,2.08-12.56,3.2-18.83.11-.62.21-1.24.32-1.86,5.19-8.08,9.94-17.4,9.62-27.24-.35-10.79-7.52-19.67-14.56-27.2-2.25-2.41-4.54-4.77-6.82-7.15l-3.77-3.93a23,23,0,0,0-4.25-4.06.92.92,0,0,0-.83-.08c-.13-.15-.25-.32-.39-.46-.47-.49-1,.2-.84.71a.66.66,0,0,0-.36,1.15c.73.69,1.43,1.41,2.14,2.13a34.47,34.47,0,0,1,1.56,3.24,39.47,39.47,0,0,1,2.12,7,80.61,80.61,0,0,1,1.44,14.54c.27,9.79,0,19.82,3.5,29.12a33.17,33.17,0,0,0,3.75,7.18c1.38,2,3.25,4.51,5.51,5.53-1,6-2.22,12-3.07,18q-.66,4.65-1,9.33c-1.55-6.51-3.88-13.47-8.19-18.44a39.52,39.52,0,0,0-2.3-3.29,1.29,1.29,0,0,0,.17-1.18,64.1,64.1,0,0,0-16.53-25.77,66.39,66.39,0,0,0-12.25-9.24c-4.66-2.74-9.7-4.64-14.55-7-5.49-2.69-10.62-6.4-13.3-12.07a.59.59,0,0,0-1.1.4.68.68,0,0,0-.48.71,20.18,20.18,0,0,0,.47,2l-.17.41C83,199.83,88.09,211.9,95.8,220.67a53.58,53.58,0,0,0,14,11.32,56.46,56.46,0,0,0,17.06,6,41.53,41.53,0,0,1,8.38,2.2,16.86,16.86,0,0,1,7.3,6.15,30,30,0,0,1,2.21,3.75c3.48,8.07,4.4,16.75,6.23,25.27a.5.5,0,0,0,.27.35,170.15,170.15,0,0,0,2.39,23.62c.48,4.54,1.08,9.08,2,13.56q.66,3.19,1.55,6.33a124.13,124.13,0,0,0-11.45-22.55l0-.5c-1.87-10.39-6-20.81-14.09-27.9a29.84,29.84,0,0,0-13.65-6.78c-5-1-10.16-1-15.24-.81-3.26.08-6.52.15-9.77.28a77.23,77.23,0,0,0-10.21.66l-.2-.06c-.21-.16-.42-.32-.62-.49a.74.74,0,0,0-.93,1.16c.35.23.71.45,1.07.65l.51.26a3.93,3.93,0,0,0,.54.2,8.7,8.7,0,0,0,.91.26,37.63,37.63,0,0,1,4.08,2.67,53.31,53.31,0,0,1,5.42,4.88c3.52,3.57,6.69,7.47,10.24,11,3.36,3.36,7.09,6.49,11.51,8.35,4.8,2,10,2.31,15.12,3a31.36,31.36,0,0,1,8.74,2.21,16.21,16.21,0,0,1,3.66,2.15c.9.72,1.59,1.62,2.45,2.33,4.81,7.59,8.43,15.89,11.78,24.22,4.44,11,8.6,22.14,14.3,32.62a152.76,152.76,0,0,0,13.26,20.32c-1.57-1.56-3.17-3.1-4.85-4.55a119.84,119.84,0,0,0-14.32-10.33,22.11,22.11,0,0,1-4.64-8,.92.92,0,0,0-.46-.55c.39-7.25.17-14.54-2.32-21.45a44,44,0,0,0-7.28-12.62c-1.5-1.87-3.12-3.64-4.79-5.35a35.56,35.56,0,0,0-5.19-4.85c-4.51-3-6.38,6-6.62,9.29-3.8-1.35-10.64-3.22-11.34,2.61-.3,2.45.71,4.88,1.7,7.06.39.84.8,1.66,1.24,2.47a31.24,31.24,0,0,0-5.82-.87c-1.9-.13-4.51-.14-5.17,2.1-.58,1.93.85,3.83,1.89,5.32.81,1.16,1.68,2.28,2.59,3.37a7.07,7.07,0,0,0-4.9-.16,3.73,3.73,0,0,0-2.45,3.73c.24,2,2.33,3.66,3.74,4.91a40.24,40.24,0,0,0,6.26,4.43,97.6,97.6,0,0,0,13.31,6.32A41.71,41.71,0,0,0,148,363.48a23.22,23.22,0,0,0,6.8-.56l1.41-.34c2.82.72,5.66,1.41,8.52,1.95l2.49,1.29.06,0c1.78,1.17,3.54,2.35,5.26,3.6a99.18,99.18,0,0,1,16,14.75c4,4.57,7.64,9.44,11.37,14.23a23.47,23.47,0,0,0,1.29,2,22,22,0,0,0,3.45,3.64l.27.22a51.73,51.73,0,0,0-5.84-.09,59.13,59.13,0,0,0-10.93,1.48,52.9,52.9,0,0,0-10.63,3.48,10.72,10.72,0,0,0-2,1.23,90.91,90.91,0,0,0,.68-19.78A83.88,83.88,0,0,0,174.68,380c-.65-3.18-1.47-7.08-4.41-8.89a.86.86,0,0,0-1.1-.55c-2.89-1.05-5.95.34-8.33,2a77.17,77.17,0,0,0-8.66,7.41,73.2,73.2,0,0,0-14.54,18.27,45.88,45.88,0,0,0-5.41,21.07,61.18,61.18,0,0,0,2.33,17c-.77-1.29-1.58-2.58-2.47-3.82a125,125,0,0,0-9-11c-4.09-4.5-8.38-8.81-12.55-13.24l0-.27c-7.32-11.53-6-25.52-7.46-38.49a61.55,61.55,0,0,0-14.51-33.3,60.71,60.71,0,0,0-15.72-12.91,1.17,1.17,0,0,0-1.55,1.47c.19.38.33.77.5,1.15a.7.7,0,0,0,.18.61l.19.23c2,5.25,2.16,11,1.83,16.58-.38,6.43-1,12.82-.12,19.24A59.45,59.45,0,0,0,90.3,395.27a77.82,77.82,0,0,0,18.49,14l.43.13c3.19,3.37,6.46,6.66,9.61,9.95a152,152,0,0,1,10.55,12,99.85,99.85,0,0,1,6.41,9.15q.54,1.68,1.14,3.33a78.2,78.2,0,0,0-10.73-12.9c-11-10.73-24.83-18.21-38.77-24.4-2.84-1.26-5.86-2.87-9-3a7,7,0,0,0-7,4.63c-1.17,3.08-.88,6.53-.39,9.72a45,45,0,0,0,2.5,9.34c4.77,12.32,14.48,22.3,25.88,28.74,10.42,5.89,22.15,9,34,10.56-2.69-.05-5.38-.13-8,0a54.73,54.73,0,0,0-19.79,5.17c-13.44,6.3-24.07,17.11-31.93,29.54q-3.11,4.91-5.72,10.09c-1.32,2.61-3.36,5.77-3,8.84.43,3.53,3.93,4.56,7,4.5a50.91,50.91,0,0,0,10.35-1.45c14.1-3.23,26.74-11.08,37.29-20.82a156.53,156.53,0,0,0,16.37-17.87c2.18-2.72,4.32-5.49,6.38-8.3-1.4,3.83-2.88,7.64-4.55,11.38-1.34,3-2.8,6-4.35,8.92-10.85,16.88-33.42,23.12-44.35,40.3a31.26,31.26,0,0,0-5.2,15.57c0,.66.45,1.51,1.27,1.34A57.25,57.25,0,0,0,130,507.18a154.39,154.39,0,0,0,8.59-16.43,127,127,0,0,0,5.87-15.66c-1.37,6.53-3.78,13-4.62,19.51-1.6,12.55,4.22,24,12.92,32.74-5.39,5.49-13.73,10-14.37,18.54a10.49,10.49,0,0,0,4.6,9.42c3.47,2.45,7.73,3.05,11.88,3.31a125,125,0,0,0,47.63-6.4c.73-.25,1.46-.53,2.18-.81a32.06,32.06,0,0,1-10.26,5.34A67.56,67.56,0,0,1,179,559.21c-5.09.38-10.17.75-15.22,1.53a118.72,118.72,0,0,0-14.46,3.18c-3.24.93-6.42,2.06-9.55,3.28a33.56,33.56,0,0,0-7.34,1.18,61.9,61.9,0,0,0-8.09,2.48,64.12,64.12,0,0,0-15.08,8.21,61.79,61.79,0,0,0-20.35,26.16,55.56,55.56,0,0,0-4.23,18.54.4.4,0,0,0,.41.43l0,.24a.56.56,0,0,0,.87.54,16.2,16.2,0,0,0,6.29-1.92,34.75,34.75,0,0,0,5.89-3.52,50.33,50.33,0,0,0,10-10c6.33-8.23,10.74-17.7,16.6-26.24a57.39,57.39,0,0,1,10.23-11.54c1.93-.89,3.89-1.71,5.88-2.48l.35-.07.37-.22q3.5-1.32,7.08-2.42c9.6-2.92,19.38-4.24,29.35-5,2.72-.21,5.45-.47,8.15-.87-1.78.85-3.53,1.74-5.23,2.66a95.85,95.85,0,0,0-13.58,9.07A122.26,122.26,0,0,0,145,595.65a142.4,142.4,0,0,0-16,27.93,22.36,22.36,0,0,0-3,3.32c-1.38,1.63-2.74,3.28-4.06,5q-3.88,5-7.35,10.25t-6.49,10.65a88.13,88.13,0,0,0-4.65,9.14,3.65,3.65,0,0,0-1,.46,3.81,3.81,0,0,0-3.19,2.41,4.42,4.42,0,0,0,1.25,5,3.65,3.65,0,0,0,1,.55l.29.11.16.05a4.23,4.23,0,0,0,1.46.11h0a3.73,3.73,0,0,0,.46-.09,4.76,4.76,0,0,0,2.43-1.36,4.82,4.82,0,0,0,.58-5.9,3.32,3.32,0,0,0-1.38-1.14c1.47-2.67,2.82-5.41,4.29-8.08,2-3.66,4.18-7.26,6.46-10.77s4.61-6.88,7.06-10.21c1.21-1.64,2.43-3.26,3.69-4.87a147.19,147.19,0,0,0-6.56,21.23,115.89,115.89,0,0,0-3.25,29.9,3.16,3.16,0,0,0-1.73,2.21,3.77,3.77,0,0,0,0,.67,3.63,3.63,0,0,0-.41,2.77,3.39,3.39,0,0,0,2.5,2.26c2.41.68,4.82-1.44,5-3.83a4.37,4.37,0,0,0-1.26-3.46,3.55,3.55,0,0,0-2.52-1,197.89,197.89,0,0,1,3-25.58,143.22,143.22,0,0,1,4.37-16.57,51.48,51.48,0,0,0,2,10.49,50.68,50.68,0,0,0,2.92,7.41,23.92,23.92,0,0,0,3.39,5.6,3.2,3.2,0,0,0-.19.37,3.77,3.77,0,0,0-.19,2,3.62,3.62,0,0,0,1.16,2.06,3.31,3.31,0,0,0,1.16.65l.06,0a3.6,3.6,0,0,0,.86.21l.09,0a.53.53,0,0,0,.13,0,3.79,3.79,0,0,0,1.58-.2,3.63,3.63,0,0,0,2.18-2.63,3.78,3.78,0,0,0,.09-1s0-.06,0-.08h0a3.59,3.59,0,0,0-.66-1.89,3.91,3.91,0,0,0-3.47-1.57,3.52,3.52,0,0,0-1.79.75c-.3-.56-.62-1.1-.92-1.65-.62-1.15-1.23-2.31-1.81-3.49a56,56,0,0,1-5.66-20c1-2.78,2-5.54,3.14-8.25,7.84-18.69,19.57-36.17,35-49.46a101.55,101.55,0,0,1,14.39-10.42c2.54-1.51,5.14-2.92,7.82-4.18,1.69-.8,3.41-1.52,5.14-2.23.72-.19,1.44-.36,2.15-.58l.81-.29c-2.82,1.74-5.64,3.47-8.4,5.29a79.25,79.25,0,0,0-18.87,17c-.72.92-1.42,1.86-2.09,2.82-.9,1-1.74,2-2.59,3.07a80.57,80.57,0,0,0-4.87,6.59,70.61,70.61,0,0,0-7.46,14.48,50.6,50.6,0,0,0-2.19,28.58,37,37,0,0,0,6.54,14.49,1,1,0,0,0,1.81-.67c3.36-2.53,5.67-6.66,7.14-10.5a44.08,44.08,0,0,0,2.67-13.69c.46-9.68-1.26-19.35-.55-29a37.56,37.56,0,0,1,4-15.16,1,1,0,0,0,.1-.62,76.35,76.35,0,0,1,15.55-14.41c3.88-2.7,8-5.13,12.06-7.7a30.49,30.49,0,0,0-3.48,6.44c-2.23,5.7-2.56,11.92-2.16,18a186.42,186.42,0,0,0,2.84,20.21c.59,3.33,1,6.77,1.94,10,.83,3,2.59,5.67,5.7,6.52,5.3,1.44,10.8-2.68,14.48-6,10.15-9.07,15.08-22.21,17.49-35.3.31-1.7.59-3.42.84-5.15h0c.64,1,1.26,2.11,1.87,3.18,1.21,2.09,2.36,4.21,3.48,6.35,1.61,3.06,3,6.27,4.67,9.32-2.44,14.11-3.62,29.1,4.71,41.57a28.77,28.77,0,0,0,9.31,8.86,1,1,0,0,0,1.46-.79,85.84,85.84,0,0,0-3.26-28,67.91,67.91,0,0,0,7.23,11.7,66.11,66.11,0,0,0,5.4,6c1.22,3.33,2.84,6.57,4.27,9.79,1.75,3.93,3.56,7.84,5.35,11.75,3.12,6.78,6.13,14.32,12.43,18.82a16.57,16.57,0,0,0,10.18,3.31,1,1,0,0,0,.81-1.3,75.34,75.34,0,0,0-17.61-30.69,115.25,115.25,0,0,0,31.9,12.14c4.19,1,8.43,1.76,12.68,2.46a56.29,56.29,0,0,1,9.92,7.84,143.57,143.57,0,0,1,10,11.62c6,7.42,12.35,15,21.09,19.21a28.65,28.65,0,0,0,13.69,3,1.13,1.13,0,0,0,1-1.22,51.68,51.68,0,0,0-30.87-38c4.1.29,8.21.46,12.32.48,4.56,0,9.15-.07,13.7-.45,4.29-.36,8.68-1.38,11.79-4.57,1.15-1.19,2.91-3.4,2.1-5.11a15.35,15.35,0,0,0-3.16-4.42,19.86,19.86,0,0,0-10.1-5.06c-8.31-1.65-16.5,1.63-23.72,5.45-6.76,3.57-13.6,7.93-21.14,9.57-.65,0-1.29,0-1.93,0-4.33-.66-8.66-1.38-13-2.27a126.46,126.46,0,0,1-29.38-9.52,89.38,89.38,0,0,1-9.95-5.62,33.82,33.82,0,0,0,8,1.52,52.12,52.12,0,0,0,8.82,3.92,40,40,0,0,0,11.3,2.52c7.22.39,13.91-2.32,20.79-4a27.22,27.22,0,0,1,11.56-.76l.24,0,.29.09a.88.88,0,0,0,.84-1.37l-.13-.15v-.06c-2.61-6.38-9.23-10.18-15.93-10.7-7.53-.59-14.81,2.26-21.74,4.82l-7.1,2.65c-1.44.55-2.93,1-4.36,1.63-1.52.06-3,.07-4.57,0l-.91-.08-.5-.16-.3.09a34.07,34.07,0,0,1-9.74-2.29,68.14,68.14,0,0,1-11.23-10.3c-7-8.12-11-17.9-15.14-27.66-1.39-3.29-2.84-6.61-4.44-9.84a1,1,0,0,0-.15-1l-1.19-1.55a63.57,63.57,0,0,0-5.6-8.88,51.49,51.49,0,0,0,15.2,10.19,107,107,0,0,0,17.83,5.8c2.95.73,5.93,1.5,8.92,2.08,2.54.49,5.29.68,7.66-.54,5.2-2.68,5.64-9.84,5.18-15a36.2,36.2,0,0,0-5.46-15.77c-6.19-9.93-16.55-16.89-27.29-21.24a1,1,0,0,0-.21-.2,13.15,13.15,0,0,0-1.42-.79l.27,0,.52-.05c1.61.44,3.21.88,4.8,1.38a95.23,95.23,0,0,1,10.1,3.82,58.35,58.35,0,0,1,18.62,12.85,39.14,39.14,0,0,1,3.81,4.78c5.81,16-.25,37.66,14.91,49.34a18.25,18.25,0,0,0,11.63,4l.41.19c.83.32,1.6-.81.84-1.38l-.82-.64c.08-4.4,0-8.8-.17-13.2a66.16,66.16,0,0,0-1.11-12.49c-1.78-8-7-14.24-13.09-19.39A125.18,125.18,0,0,0,301.87,563a1,1,0,0,0-.75-.15c-.71-.92-1.44-1.83-2.24-2.71a58.36,58.36,0,0,0-17.68-13.07,82.75,82.75,0,0,0-11.35-4.51q-1.5-.48-3-.93,1.65-.2,3.27-.45c2.31-.36,4.59-.83,6.87-1.36l.37-.09q3-.51,5.9-1.11c3.7,1.46,6.8,4.26,9.64,7,3.36,3.21,6.65,6.41,10.82,8.56a29.68,29.68,0,0,0,13,3.28c5.11.11,10.06-1.3,15.07-2.07a30,30,0,0,1,7.8-.32,17.15,17.15,0,0,1,3.81.82c.91.32,1.74.78,2.62,1.12l.25.24.15.19a.85.85,0,0,0,1.47-.79h0a.83.83,0,0,0-.1-.87,6.25,6.25,0,0,0-.58-.57,21.21,21.21,0,0,0-6.39-7.08l-.19-.2a74.08,74.08,0,0,0-7.93-7.41,40.11,40.11,0,0,0-16.42-8.06c-6-1.25-12.21-.41-18.15.95-4.89,1.11-9.74,2.36-14.64,3.45a.45.45,0,0,0-.23-.08,41,41,0,0,0-6.77,1c-2.26.42-4.54.78-6.82,1.08-.55.07-1.11.1-1.66.17a34.76,34.76,0,0,0,7.71-3.55,49.62,49.62,0,0,0,9.55-7.91.49.49,0,0,0,.71-.22c.22-.45.47-.89.72-1.32,1.4-1.54,2.75-3.14,4.05-4.77l.39-.5c5.21-4.53,12.39-6.95,18.82-9a79.93,79.93,0,0,0,13.65-5.15,36.59,36.59,0,0,0,11.45-9.54,95.46,95.46,0,0,0,9.44-15.1,1.12,1.12,0,0,0,.13-.62,1,1,0,0,0-1-1.1h-.24c-8.43-4.3-18.45-.87-26,3.66a61.48,61.48,0,0,0-20.58,20.4,67,67,0,0,0-6.32,13.67c-3.74,4.87-7.69,9.63-12.53,13.41a38.24,38.24,0,0,1-8.54,5.1,42.49,42.49,0,0,0,11.9-10c8.21-10,11.21-23.27,10.39-36a69.83,69.83,0,0,0-1.34-9.76,62.89,62.89,0,0,0-1.88-7.32c6.21,0,13.41-1.27,15.8-7.84s-.68-14-4.84-19.17c-4.86-6-11.68-10-18.34-13.7A122.81,122.81,0,0,0,262.5,424c-.43-.15-.86-.27-1.29-.41a1.23,1.23,0,0,0-.59-.36c-.65-.18-1.32-.3-2-.44-1-.3-2.09-.57-3.14-.82a67.51,67.51,0,0,0,51.31-37.64,64.25,64.25,0,0,0,3.79-9.82,28.68,28.68,0,0,0,1.5-8.56c0-.1.07-.19.1-.29a1.16,1.16,0,0,0-.16-1c0-.09,0-.17,0-.26a9.65,9.65,0,0,0-5.21-7.68c-2.75-1.28-6-1.08-8.86-.49-13.74,2.81-26.2,11.16-35.34,21.61a83.9,83.9,0,0,0-13.68,22,148.82,148.82,0,0,0,.53-26c0-2.69-.12-5.38-.2-8.06A116.1,116.1,0,0,1,252,348,102.68,102.68,0,0,1,255,338c.75-2.13,1.62-4.21,2.46-6.31a3.2,3.2,0,0,0,1.84,0,3.29,3.29,0,0,0,1.2-.72l.17-.15.15-.13a.56.56,0,0,1,.05-.08,3.78,3.78,0,0,0,1.11-2.22,3.83,3.83,0,0,0-1.56-3.59,3.9,3.9,0,0,0-1.85-.74,3.79,3.79,0,0,0-2.23.5,3.56,3.56,0,0,0-1.79,3.34,3.44,3.44,0,0,0,.79,1.86,2.7,2.7,0,0,0,.41.79c-1,2.3-1.83,4.71-2.6,7.06q-1.62,4.91-2.75,9.95c-.62,2.76-1.09,5.53-1.47,8.32-.56-11.11-1.47-22.2-2.83-33.25-.86-7-1.62-14.19-3.37-21.07a3.9,3.9,0,0,0,1.18-.61,4,4,0,0,0,1.54-3.2,3.71,3.71,0,0,0-1.21-2.7c-.1-.1-.18-.22-.29-.32a3.75,3.75,0,0,0-1.55-.79,4.08,4.08,0,0,0-3.12.51,3.78,3.78,0,0,0-1.8,2.56,4.07,4.07,0,0,0,3.36,4.77,4.42,4.42,0,0,0,.63,0c.59,6.21,1.79,12.37,2.64,18.55q1.37,10,2.29,20.09c.5,5.51.89,11,1.21,16.53a144.88,144.88,0,0,0-7.43-27.68,100.21,100.21,0,0,0-10.55-21.12l0-.05a3.35,3.35,0,0,0,.48-2.88,3.65,3.65,0,0,0-1.77-2.05,3.49,3.49,0,0,0-2.65-.27,3.22,3.22,0,0,0-2,2,3.77,3.77,0,0,0,.34,3.24,2.78,2.78,0,0,0,1.32,1.08,3.15,3.15,0,0,0,2.34.24,3.42,3.42,0,0,0,1-.43c2.93,6,6,12.07,8.51,18.3a164.91,164.91,0,0,1,6.86,21,139.77,139.77,0,0,1,3.34,17.91c-.5-1.22-1.09-2.4-1.63-3.55a63.17,63.17,0,0,0-3.66-6.59,72.64,72.64,0,0,0-4.36-6.2c-.82-1.05-1.68-2.08-2.56-3.07l-.67-.78a1.83,1.83,0,0,0,.18-.3,3.15,3.15,0,0,0-2.29-4.21,2.44,2.44,0,0,0-.81,0,3.24,3.24,0,0,0-1,.4,2.94,2.94,0,0,0-1.09,1.2,2.83,2.83,0,0,0-.25.76,2.36,2.36,0,0,0,0,.75s0,.07,0,.1a2.42,2.42,0,0,0,.13,1.1,2.61,2.61,0,0,0,.26.53,1.37,1.37,0,0,0,.18.24,3.25,3.25,0,0,0,.91.74,2.66,2.66,0,0,0,.82.28,2.93,2.93,0,0,0,2-.46.93.93,0,0,0,.15-.13c.22.22.44.45.64.67.79.89,1.55,1.81,2.29,2.75a67,67,0,0,1,4.37,6.19,73.26,73.26,0,0,1,3.66,6.68c1.06,2.16,1.79,4.55,3.07,6.59,0,.05.08.06.12.08.33,3.53.55,7.07.63,10.61v.18c0,2.79,0,5.57-.07,8.36,0,1,0,1.92-.09,2.87-.16,3-.46,6-.81,9a54.49,54.49,0,0,0-2.55-16.13,53.79,53.79,0,0,0-24-29.79,52.74,52.74,0,0,0-8.94-4.19c-3-1.06-6.13-2.1-9.31-2-7.12.15-10,7.49-11,13.5-1.3,8.08.33,16,3.54,23.33-.37-.7-.74-1.41-1.1-2.12a106.12,106.12,0,0,1-8.4-23.57c-.59-2.62-1-5.26-1.4-7.91a17.68,17.68,0,0,1,.87-2.25c.15-.31.3-.62.47-.92l.18-.34.18-.3c.18-.29.39-.57.59-.86,10.48-5,18.47-15.14,22.54-25.8,4.39-11.48,4.73-24.11,2.23-36.07-.22-1.07-.3-2.59-1-3.57-.06-.28-.1-.58-.16-.86-.16-.64-1-.52-1.27,0a5.19,5.19,0,0,0-3.12,1.09,11.15,11.15,0,0,0-1.34-2.43,15.57,15.57,0,0,0-2.56-3.22,8.48,8.48,0,0,0-6.23-2.42c-2.69.2-4.72,2.19-6.67,3.83-2.18,1.84-4.51,3.6-6.52,5.64-2.09-2.71-5-4.47-8.54-2.39-2.68,1.57-4.1,4.72-5.27,7.46a51.6,51.6,0,0,0-2.71,8.3A56.78,56.78,0,0,0,169,332a52,52,0,0,0,9.77,15.31,57.26,57.26,0,0,0,2.94,6.43,1.19,1.19,0,0,0,.45.49,104.73,104.73,0,0,0,10.68,31.21A181.26,181.26,0,0,1,174.58,359a162.2,162.2,0,0,1-7.47-15.21c-1.38-4.64-2.79-9.28-4.15-13.92a1,1,0,0,0,.18-.9c-.63-2.18-1.5-4.27-2.25-6.41-1.11-4-2.16-8.05-3.07-12.13,0-.21-.08-.42-.13-.62-.69-4-1.17-8.1-1.57-12.17-.17-1.74-.31-3.48-.46-5.22a.43.43,0,0,0,.2-.27c1.08-3.9,2.46-7.74,3.65-11.61.58-1.88,1.16-3.76,1.77-5.63.31-.93.62-1.86.94-2.79a4.27,4.27,0,0,0,.41-2c17.07-12.6,29.94-31.09,37-51a106.77,106.77,0,0,0,4.64-18,1.06,1.06,0,0,0-.16-.74A.73.73,0,0,0,203.61,199.89Zm-47.72,31.74c-1.6-16.37-1.07-33.56-6.73-49.17a64,64,0,0,1,6,13.65,62.37,62.37,0,0,1,2.61,18.26,109.34,109.34,0,0,1-1.71,17.4Zm3.7-41.15a28.37,28.37,0,0,1,3.72,28.17,92.4,92.4,0,0,1-4.76,10.49c1.48-10.19,2-20.41-.46-30.57a65.06,65.06,0,0,0-7.85-18.77c-.18-.28-.36-.55-.53-.83A90.24,90.24,0,0,1,159.59,190.48Zm-7.51,37a30.39,30.39,0,0,1-3.53-6.39,48.8,48.8,0,0,1-3.21-14.32c-.88-9.76-.09-19.68-2.23-29.31-.36-1.59-.82-3.25-1.35-4.88a61.77,61.77,0,0,1,4.35,7.54,65.14,65.14,0,0,1,4.18,11.9c2.16,8.67,2.72,17.64,3.45,26.51.34,4.14.74,8.26,1.36,12.36-.2-.18-.4-.36-.59-.55A23.69,23.69,0,0,1,152.08,227.48ZM90.81,198a45,45,0,0,0,3.7,3.19,74.94,74.94,0,0,0,11.91,7.27,100.8,100.8,0,0,1,12.65,7.34,61.27,61.27,0,0,1,10.49,9.67,64.68,64.68,0,0,1,6.52,9.24c-.5-.42-1-.86-1.52-1.25-6.27-4.62-13.65-7.31-20.22-11.4A71.49,71.49,0,0,1,90.81,198Zm17,5.48a64.91,64.91,0,0,1,23,20.57,62.56,62.56,0,0,1,4.18,7,56.53,56.53,0,0,0-12.55-13.78,89.86,89.86,0,0,0-11.71-7.45c-4.24-2.37-8.63-4.57-12.52-7.51a38.54,38.54,0,0,1-6-5.55,33.65,33.65,0,0,1-2.29-2.91C95.1,198,102.18,200.5,107.8,203.44ZM126,235.33a51.44,51.44,0,0,1-8.88-2.36,50,50,0,0,1-15.81-9.45,49.47,49.47,0,0,1-11.92-16.09,55.79,55.79,0,0,1-4.5-15.92c.64,1.48,1.36,2.93,2.09,4.33a69.77,69.77,0,0,0,6,9.57,72.82,72.82,0,0,0,16,15.74c6.22,4.46,13.24,7.36,19.87,11.11a39.84,39.84,0,0,1,7.87,5.71,18.9,18.9,0,0,0-2.07-.8A67.8,67.8,0,0,0,126,235.33Zm13.93,57.38a42.17,42.17,0,0,0-7.56-4.39c-3.76-1.8-7.68-3.26-11.54-4.83a86.19,86.19,0,0,1-11.12-5.26,100.22,100.22,0,0,1-10.86-7.93,76,76,0,0,0-6.15-4.47c2.06.53,4.12,1.08,6.16,1.7a117.27,117.27,0,0,1,15.79,6A73.19,73.19,0,0,1,139.92,292.71ZM91,262.75c2.85,0,5.71-.08,8.56-.14a101.33,101.33,0,0,1,15.19.34,28.87,28.87,0,0,1,13.67,5.33,34.61,34.61,0,0,1,9.7,11.5,49.09,49.09,0,0,1,4.44,12.38,73.74,73.74,0,0,0-23.41-19.08,104.06,104.06,0,0,0-17.41-7.18,108,108,0,0,0-11.88-3.14Zm43.91,29.19c-5.3-1.13-10.83-.9-16.09-2.3-10.09-2.68-16.37-11.72-23.24-18.86a51.8,51.8,0,0,0-6.51-5.9l1.15.3a69.1,69.1,0,0,1,7.39,5.07c3.36,2.63,6.62,5.4,10.16,7.78,6.74,4.52,14.52,7.05,21.81,10.51,2.06,1,4.1,2,6.06,3.21.31.18.6.38.89.58Q135.7,292.11,134.88,291.94ZM139,310.87l.05,0c.94-.19,2,1.24,2.69,1.83a66.71,66.71,0,0,1,8.71,9.69,42.63,42.63,0,0,1,6,11.36,45.66,45.66,0,0,1,2.09,10.86,81.91,81.91,0,0,0-7.12-16.53A85.74,85.74,0,0,0,139,310.87Zm-1.73,2.64c.16-.4.35-1,.6-1.47,2.31,2.51,4.61,5,6.7,7.7a77.06,77.06,0,0,1,5.8,8.82c.95,1.67,1.84,3.39,2.68,5.12a36.65,36.65,0,0,0-17-14.05A17.83,17.83,0,0,1,137.27,313.51Zm-17.34,29a.46.46,0,0,0,.5-.16c.23.26.44.53.68.78A56.17,56.17,0,0,0,140,356.55a86.51,86.51,0,0,1-16.31-6.74,77.38,77.38,0,0,1-10-6.67C115,341.1,118,342,119.93,342.48Zm21.61,18.31A77.56,77.56,0,0,1,130,356.46a53.71,53.71,0,0,1-12.52-7.25,29.83,29.83,0,0,1-2.91-2.71c-.69-.75-1.47-1.69-1.22-2.72a67.64,67.64,0,0,0,18,10.85,140.09,140.09,0,0,0,20.85,6.95A26.49,26.49,0,0,1,141.54,360.79Zm-24-24.63a7.66,7.66,0,0,1-1.2-2.28c2.51,2.13,5.27,4,7.91,5.94,3.15,2.31,6.32,4.57,9.51,6.82q4.44,3.14,8.92,6.21a82,82,0,0,0,8.1,5.08l.45.23A51.93,51.93,0,0,1,117.53,336.16Zm37.81,22.23a58.67,58.67,0,0,1-5.56-2.46,88.83,88.83,0,0,1-10.86-6.78q-5.86-4.15-11.69-8.38c-3.62-2.64-7.16-5.55-11-7.95.3-1.18,2-1.17,3.08-1.13a60.86,60.86,0,0,1,7.36,1c.7,1.18,1.45,2.33,2.25,3.44a64.73,64.73,0,0,0,12.14,12.44,143.42,143.42,0,0,0,14.29,9.81Zm-12.48-17.73c2.86,3.31,5.65,6.69,8.62,9.9,1.41,1.52,2.86,3,4.41,4.36.52.47,1.07.95,1.63,1.43.14.47.29.94.43,1.42-2.54-1.58-5.08-3.16-7.57-4.82-9.21-6.1-18.29-13.49-23.38-23.52-1.1-2.17-2.48-4.78-2.35-7.29a2.82,2.82,0,0,1,.82-2C131,327.22,137,333.89,142.86,340.66Zm13.72,13c-1.62-1.42-3.16-2.92-4.65-4.46-3.08-3.17-5.93-6.55-8.83-9.88-5.68-6.55-11.24-13.28-17.23-19.54a4.76,4.76,0,0,1,3-.45c1.43,1.33,3.2,2.32,4.75,3.51s3.27,2.62,4.81,4a70.91,70.91,0,0,1,8.54,9.29,101.36,101.36,0,0,1,6.59,10.45,29.91,29.91,0,0,1,2.81,6c.14.41.25.81.37,1.22Zm.95.77c-.75-1.8-1.6-3.56-2.36-5.34-.68-1.57-1.17-3.17-2-4.69s-1.56-2.8-2.41-4.16a71.3,71.3,0,0,0-12.61-15.19c-1.41-1.27-2.87-2.49-4.38-3.64-.58-.44-1.18-.91-1.79-1.35a35.92,35.92,0,0,1,12.05,6.3A37.3,37.3,0,0,1,158,354.82ZM81.78,332.56h0a59.64,59.64,0,0,1,14.39,19.35,59,59,0,0,1,5,17.75c.78,6.58.78,13.22,1.66,19.79a42.8,42.8,0,0,0,4.77,15.6c-.45-.5-.88-1-1.33-1.51-.06-.12-.13-.23-.19-.34a.77.77,0,0,0-.24-.9c-.15-.13-.29-.27-.45-.39a72.59,72.59,0,0,1-4.82-11.09,165.71,165.71,0,0,1-4.44-17c-2.46-11.23-4.72-22.54-9.6-33A50.82,50.82,0,0,0,81.78,332.56Zm-3.06-.64c.4.5.79,1,1.17,1.5a63.07,63.07,0,0,1,4.49,7,76.74,76.74,0,0,1,6.32,16.27c3.11,11.08,4.76,22.57,8.57,33.46a83.07,83.07,0,0,0,4.15,10c-.14-.13-.28-.28-.43-.41-5.4-6.6-10.14-13.85-12.82-22-2.79-8.48-3.36-17.48-4.88-26.23a67.32,67.32,0,0,0-3.91-14.37A40.52,40.52,0,0,0,78.72,331.92Zm-2.93-.21a54.26,54.26,0,0,1,6.85,18.5c1.69,8.59,2.3,17.39,4.77,25.82a54.31,54.31,0,0,0,2.71,7.23c-6.14-10.76-9.91-23-12.17-35.1-.67-3.56-1.18-7.14-1.7-10.72A43.83,43.83,0,0,0,75.79,331.71Zm28.89,72.74a64.18,64.18,0,0,1-23.16-24.68,55.19,55.19,0,0,1-5.59-17c-1-6.38-.28-12.67.14-19.06,0-.32,0-.63.05-1a151.69,151.69,0,0,0,4,18.9,94.93,94.93,0,0,0,13,28.59,77.51,77.51,0,0,0,6.55,8.23C101.24,400.49,102.93,402.49,104.68,404.45Zm14.7,123.72a54.87,54.87,0,0,1-19.91,18,57.4,57.4,0,0,1-7.64,3.31c1.27-.88,2.49-1.83,3.69-2.77,2.69-2.1,5.26-4.34,7.76-6.66a154.15,154.15,0,0,0,13.9-14.67,142.4,142.4,0,0,0,9-12.06A52.34,52.34,0,0,1,119.38,528.17Zm8.32-21.79a154.73,154.73,0,0,1-24.39,30c-2.72,2.59-5.55,5-8.42,7.44s-5.84,4.47-8.3,7.16l-.31.07c1-9.63,7.27-17.81,14.45-24,8.67-7.43,19.1-12.84,27-21.13ZM98.86,616.6a40.76,40.76,0,0,1-6.39,4.52c-1.89,1.09-4,1.75-5.9,2.66,1.91-4.17,3.53-8.46,5.67-12.53a85,85,0,0,1,8-12.38,90.55,90.55,0,0,1,21.75-20q3-2,6.12-3.7C117.15,588,111.85,605.34,98.86,616.6Zm1.23-21.37a85,85,0,0,0-9.24,13.7,60.44,60.44,0,0,0-4.7,10.66,64.53,64.53,0,0,1,11.16-26,60,60,0,0,1,25.78-20,61.08,61.08,0,0,1,7.83-2.53A94.32,94.32,0,0,0,100.09,595.23Zm49.54,28.45c.49-10.12,4.28-19.76,9.67-28.26l.06-.08a74.64,74.64,0,0,0-7,29.31c-.21,7.23.4,14.8,2.72,21.71A40.14,40.14,0,0,1,149.63,623.68Zm14.3,12.58a32.24,32.24,0,0,1-2.94,7,29.86,29.86,0,0,1-3.68,4.88c-1.45-6.89-2.77-13.77-2.83-20.84a71.18,71.18,0,0,1,11.77-40C162,603.15,168.47,620.36,163.93,636.26Zm193.48,13.92c7.85-4,16.64-8.25,25.67-5.94,4.33,1.11,8.38,3.72,10.36,7.82-.1.23-.23.44-.34.67a28.66,28.66,0,0,0-3.8-.07c-1.8,0-3.6-.06-5.4,0-3.6,0-7.2.14-10.79.3-7.27.33-14.53.76-21.77,1.57-1.22.14-2.44.31-3.65.47C351,653.51,354.23,651.83,357.41,650.18Zm-14.31,6.55a270.59,270.59,0,0,1,39.11-2.29q3.1.07,6.2.19l2.91.12.28,0c-3.88,3.88-11.23,3.75-16.3,3.92a188.42,188.42,0,0,1-21.91-.55c-3.65-.29-7.28-.72-10.91-1.19Zm4.11,3.79a49,49,0,0,1,11.85,4.37,49.68,49.68,0,0,1,24.2,29.66c-2.08-2.32-4.34-4.51-6.56-6.65q-4.69-4.54-9.7-8.75A180.75,180.75,0,0,0,346,664c-2.66-1.64-5.38-3.18-8.13-4.67C340.94,659.8,344.07,660.22,347.21,660.52Zm-12-1.44a178.92,178.92,0,0,1,39,28.84c3.22,3.16,6.2,6.55,9.34,9.78-7.95-.21-15.27-4.48-21-9.78-7.46-6.89-13-15.56-20.15-22.7a50.44,50.44,0,0,0-7.28-6.14Zm-29.87-21.22c3.49-1.35,7-2.77,10.53-4,6.47-2.13,13.57-3.27,20-.21a13.7,13.7,0,0,1,5.71,4.9c-.71-.3-1.43-.55-2.09-.79a33.19,33.19,0,0,0-6.53-1.55,57.3,57.3,0,0,0-13.85.07c-5.24.58-10.44,1.59-15.67,2.27Zm-7.76,3c10.72-.46,21.93-3.54,32.26-2.71a34.54,34.54,0,0,1,7.41,1.35c.4.12.8.27,1.2.42-4.86.35-9.62,2-14.28,3.35a42.56,42.56,0,0,1-10.29,2,34.14,34.14,0,0,1-11.64-1.72c-2-.63-4-1.45-5.95-2.26Zm3.95,32.88c-6.3-.52-11.14-5.58-14.24-10.78a116.37,116.37,0,0,1-5.17-10.44c-.65-1.41-1.32-2.8-2-4.21,1.47,2.34,3,4.65,4.59,6.89A110.29,110.29,0,0,0,301.56,673.7Zm-14.38-26.26a73.65,73.65,0,0,1,11,16.92,71.84,71.84,0,0,1,3.18,8.14,133,133,0,0,1-15.65-18.29,109.75,109.75,0,0,1-6.54-10.52q-1.57-2.91-3-5.89c-.13-.27-.26-.56-.38-.84A74.21,74.21,0,0,1,287.18,647.44Zm-27.63-7.28c-12.57-8.44-14.5-25.53-13.15-39.47.14-1.43.32-2.86.49-4.29.05.73.07,1.46.13,2.19a100.74,100.74,0,0,0,1.52,10.79,111.85,111.85,0,0,0,6.21,20.47,95.39,95.39,0,0,0,4.8,10Zm-.3-10c.23,2.45.29,4.91.3,7.38a105.44,105.44,0,0,1-10.2-37.67c-.07-.92-.09-1.85-.13-2.77A86.39,86.39,0,0,1,259.25,630.19Zm-9.68-36.26-.51-.87v-.28C249.23,593.17,249.41,593.55,249.57,593.93Zm74,22.17c-6.24-1.32-11.26-6.6-13.78-12.35-3.56-8.11-3.53-17.18-4.43-25.83q-.33-3.24-.93-6.44a58.28,58.28,0,0,1,3,8.09c2,6.93,3.23,14.09,5.79,20.86C315.27,606,318.56,612.32,323.54,616.1Zm-4.66-36.44a29.1,29.1,0,0,1,5.35,10.51,59.33,59.33,0,0,1,1.32,12.11c.21,4.38.41,8.75.79,13.12a32.49,32.49,0,0,1-5.59-5.65,42,42,0,0,1-5.21-9.56c-2.72-6.76-4.08-14-6.25-20.9a55.61,55.61,0,0,0-5.74-12.87C309.16,570.21,314.69,574.3,318.88,579.66Zm-24.05-43.61c5.9-1.42,12-2.73,18.13-2.06s11.88,3.45,16.84,7.09c1.29.95,2.53,2,3.73,3a59.59,59.59,0,0,0-7.37-2.53c-4.49-1.24-9.09-2.1-13.67-2.94-4.4-.8-8.82-1.44-13.28-1.85-2-.2-4.09-.3-6.14-.33ZM310.05,540c8.54,1.72,17.59,3.23,25.33,7.44a28.91,28.91,0,0,1,4.64,3.15c.58.64,1.15,1.3,1.73,1.95-.71-.26-1.41-.5-2.06-.71a40.09,40.09,0,0,0-5.38-1.39c-3.9-.74-7.86-1.09-11.81-1.46a59,59,0,0,1-11.88-2.05c-4.49-1.39-8.41-3.9-12.51-6.13a33.56,33.56,0,0,0-7.32-3.1A110.93,110.93,0,0,1,310.05,540Zm-12.88,1.36c4.1,2.19,8,4.77,12.42,6.25,7.27,2.41,15,2.77,22.47,4.11q2,.36,3.93.84c-1.71,0-3.42.16-5.08.31a57.7,57.7,0,0,1-12,.28,38.16,38.16,0,0,1-11.72-3.42,75.62,75.62,0,0,1-10.59-6.66,63.19,63.19,0,0,0-5.56-3.5c-.86-.47-1.79-1-2.75-1.37A28.35,28.35,0,0,1,297.17,541.34Zm-11.32-3.23c1.51.64,3,1.17,4.51,1.95a56.67,56.67,0,0,1,5.4,3.37,94.82,94.82,0,0,0,10,6.53,43.88,43.88,0,0,0,19.07,4.61c-1.63.31-3.26.6-4.91.76a28.62,28.62,0,0,1-14.21-2.22c-4.46-1.93-7.95-5.1-11.48-8.36-2.76-2.55-5.6-5-9-6.51Zm19.43-42.27c6.21-6.72,14.4-12.79,23.37-15.12a22.61,22.61,0,0,1,11.08-.2,45.51,45.51,0,0,0-15.06,4.62,68.26,68.26,0,0,0-17.3,12.55,140.85,140.85,0,0,0-13.54,15.93A59.62,59.62,0,0,1,305.28,495.84Zm-.13,7.42A73.89,73.89,0,0,1,322.4,489a52.48,52.48,0,0,1,19.09-6.48c-4.74,8.71-10,17.51-19,22.29-8.61,4.54-18.54,5.79-27,10.72l-.55.34C298.23,511.56,301.49,507.25,305.15,503.26Zm-122-157.67-.29-.27c2.16-15.08,4.3-30.17,6.74-45.21q1-6.54,2.14-13.09c.56,1.59,1.18,3.16,1.63,4.8a44,44,0,0,1,1.18,5.81,54.09,54.09,0,0,1,.26,11.93c-.73,8.67-3.33,17.05-6.66,25.05q-1.44,3.48-3,6.88C184.5,342.85,183.79,344.21,183.14,345.59Zm1.4,0c.4-.83.79-1.67,1.18-2.49,1-2.13,2-4.28,3-6.45a110.18,110.18,0,0,0,4.79-13.05,64.05,64.05,0,0,0,2.61-25.06,46.09,46.09,0,0,0-1.78-8.83,21.68,21.68,0,0,1,2.42,6.22,75.68,75.68,0,0,1,1.66,13.34c.5,8.95-.53,18.15-4.9,26.12A31.19,31.19,0,0,1,184.54,345.61Zm14.4-21.31c1.95-9.34,1.06-19.22-.62-28.53-.18-1-.4-2-.68-3a37.57,37.57,0,0,1,2.06,3.86,39,39,0,0,1,2,26.93,39.84,39.84,0,0,1-7.38,13.77c-.74.9-1.52,1.75-2.34,2.57A38.81,38.81,0,0,0,198.94,324.3Zm11.81-19.69A54.38,54.38,0,0,1,198.37,336a45.57,45.57,0,0,1-3.73,3.88l.07-.07a40.38,40.38,0,0,0,8.06-12.92l.06-.16a71.15,71.15,0,0,0,8.08-27C210.91,301.34,210.87,303,210.75,304.61Zm-1-11.49a70.15,70.15,0,0,1-.94,11.85,73.07,73.07,0,0,1-4.19,15.12,40.24,40.24,0,0,0,.49-11h0a62.72,62.72,0,0,0,3.32-13.3q.48-3.36.67-6.75c0-.9.12-1.81.17-2.73A67.33,67.33,0,0,1,209.79,293.12Zm-2.34-9.56c.07,1.75.21,3.49.17,5.24a61.82,61.82,0,0,1-.55,6.93,84,84,0,0,1-2.24,10.88,40.85,40.85,0,0,0-5.63-15.27c.93-1,1.74-2.08,2.66-3.07a29.79,29.79,0,0,1,4-3.55C206.37,284.33,206.9,283.92,207.45,283.56Zm-24.07,1.54a72.46,72.46,0,0,0,5.88-4.77c1.7-1.42,3.58-3.53,5.83-4a6.16,6.16,0,0,1,5.2,1.71,13,13,0,0,1,2.39,3,14.53,14.53,0,0,0,1.36,2.35,30.84,30.84,0,0,0-3.2,2.72,20.92,20.92,0,0,0-3,3.33,36.34,36.34,0,0,0-3.16-3.94c-1.51-1.61-3.48-2.82-5.71-1.84a14.09,14.09,0,0,0-4.45,3.7A20.6,20.6,0,0,0,183.38,285.1Zm3.1,3.33a13.41,13.41,0,0,1,2.88-2.66l.35.18c.24.07.44.19.67.28-2.89,16.45-5.38,33-7.28,49.58-.36,3.12-.65,6.24-1,9.36l-.37.12A76.52,76.52,0,0,1,178.61,324a68.85,68.85,0,0,1,4.14-23.44c.76-2,1.59-4,2.52-6,.47-1,1-2,1.47-2.92a21.34,21.34,0,0,0,1.57-3,.65.65,0,0,0-1.1-.67c-1.3,1.42-2.09,3.53-2.9,5.26s-1.62,3.67-2.3,5.55a79.77,79.77,0,0,0-3.15,11.57,72.73,72.73,0,0,0-.59,24.05,65.92,65.92,0,0,0,1.8,8.5,45.53,45.53,0,0,1,1.85-48.65A49.51,49.51,0,0,1,186.48,288.43Zm-2.89,0-.06.07a47.93,47.93,0,0,0-10.34,19.78,72.41,72.41,0,0,1,1.92-11.62,91.82,91.82,0,0,1,4.82-13.4A13.82,13.82,0,0,1,183.59,288.41Zm-7.43,52.33a50.07,50.07,0,0,1-4.1-6.91,55.12,55.12,0,0,1-4.88-15.27,52.65,52.65,0,0,1,4.19-31.39c1.32-2.67,3.8-6.12,7.24-4.72l.16.09a56.47,56.47,0,0,0-4.53,12.07,74.14,74.14,0,0,0-2.34,13,76.48,76.48,0,0,0-.15,11,48.7,48.7,0,0,0,4.34,21.22c.21.54.43,1.08.64,1.61C176.54,341.25,176.34,341,176.16,340.74ZM245.58,428a5.79,5.79,0,0,1,.58-1,216.27,216.27,0,0,0,14.11,19.31c5.69,6.94,11.74,13.92,19.2,19a16.64,16.64,0,0,0-4.91.83c-.89-.85-1.94-1.61-2.82-2.42q-2-1.83-3.93-3.75c-2.61-2.62-5.07-5.38-7.4-8.24a114.64,114.64,0,0,1-12-18C247.43,431.86,246.5,430,245.58,428Zm-1.93-.8c-.08-.36-.17-.71-.26-1.07.11.28.23.57.34.86Zm-74,5.07a23.69,23.69,0,0,0,9.69,7.4,33.87,33.87,0,0,0,15.22,2.49A59.75,59.75,0,0,0,210,439a110.28,110.28,0,0,0,16.3-6.92c.24-.13.47-.27.71-.39l-1,1.08-5.47,5.72c-.89.92-1.77,1.84-2.64,2.79-.29.31-.57.61-.82.92l-.32.28a40.71,40.71,0,0,0-5.68-.67,68.18,68.18,0,0,0-9,0,71.43,71.43,0,0,0-18.11,3.62,109.23,109.23,0,0,0-18.7,8.48C159.54,457,154,460.4,148.55,464l0-.36A85.85,85.85,0,0,0,169.65,432.3Zm-23,25.57,0-.14h0l.28.07,0,0Zm115.16,8.86a48.23,48.23,0,0,0,3.74,3.39c-11.13,6.3-19.57,16.77-24.19,28.68a69.13,69.13,0,0,0-3.17,10.82,47.31,47.31,0,0,0-4.55-16.33l0,0,.33-.6c.36-.7.7-1.39,1-2.1s.72-1.5,1.07-2.25a4,4,0,0,0,.44-1.31l.85-1.81q1.53-3.29,2.78-6.69a100.76,100.76,0,0,0,3.94-13.82,86.44,86.44,0,0,0,1.78-21.1,73.23,73.23,0,0,0,11.77,18.71Q259.65,464.61,261.84,466.73Zm9.81,3.39c1-.41,2-.86,3.13-1.25a89.43,89.43,0,0,0-18.29,19.29,100.47,100.47,0,0,0-14.72,29.95c-.76,2.57-1.41,5.17-2.2,7.74a9.19,9.19,0,0,0-.11-2.56,1.57,1.57,0,0,0-.14-.38c0-1,.06-1.95.12-2.92a70.5,70.5,0,0,1,1.36-10c2.86-13.62,10.15-26.26,21.49-34.52A47.28,47.28,0,0,1,271.65,470.12Zm-65.27-1.8c.24-.17.46-.36.7-.53-.15.38-.33.74-.46,1.13a16,16,0,0,0-.61,2.55,10.38,10.38,0,0,0,0,2.49c-.49-.07-1-.15-1.49-.21a44.77,44.77,0,0,0-6.55-.19A71.11,71.11,0,0,0,206.38,468.32Zm-19.52,6.84c-.83.22-1.72.45-2.65.71a41.41,41.41,0,0,1-6.67,1.08,38.1,38.1,0,0,1-20.64-4.29c-1.39-1.2-2.8-2.36-4.23-3.52a37.75,37.75,0,0,0,8.58,2.69,41.08,41.08,0,0,0,14,.25A40.24,40.24,0,0,0,189,467.33c5.18-2.93,9.79-6.72,14.69-10.08,5.16-3.53,10.73-6.57,17-7.32a1,1,0,0,0,.57-.23,6.16,6.16,0,0,1-1.41,2.61,87,87,0,0,1-12.3,11.51A63.3,63.3,0,0,1,186.86,475.16Zm20.38-3.35a22.72,22.72,0,0,1,.61-2.43,19.32,19.32,0,0,1,.93-2.27c.19-.38.41-.74.62-1.11a114.19,114.19,0,0,0,10.95-10c.66-.68,1.35-1.39,2-2.15-1.71,3.57-3.45,7.13-5.26,10.65s-3.69,7.15-5.52,10.72a38.13,38.13,0,0,0-4.75-1.12C206.92,473.32,207.08,472.56,207.24,471.81Zm25.55-35.4q1.34-2.88,2.64-5.79l.54-1.23a14.64,14.64,0,0,1,1.45-.82c-.85,1.54-1.66,3.08-2.42,4.68q-2.55,5.4-4.75,11A188.35,188.35,0,0,0,223,466.54q-.81,3.15-1.53,6.31c-.26,1.12-.5,2.24-.74,3.37-.19.9-.31,1.86-.55,2.77a39.44,39.44,0,0,0-7.62-3.47A426.74,426.74,0,0,0,232.79,436.41Zm-13.13,6.91,12.19-10.61c-.16.39-.32.77-.49,1.16q-2.24,5.25-4.6,10.44c-.82,1.82-1.68,3.61-2.52,5.41,0-.13,0-.26,0-.39C224.39,446.4,222.19,444.35,219.66,443.32Zm23.89,5.51a86.19,86.19,0,0,1-4.32,27.37q-1.28,3.76-2.88,7.4c-.43,1-.91,1.92-1.39,2.88a5.13,5.13,0,0,0-.58,1.06l-.28.66c-.42.85-.82,1.69-1.17,2.56l0,.31c-.06.15-.12.31-.19.47a34.06,34.06,0,0,0-4-5.57c1.79-8.24,3.1-16.59,4.8-24.85s3.66-16.67,5.68-24.95c.58-2.4,1.27-4.8,1.91-7.21a1.17,1.17,0,0,0,.38.23c.42,1.89.79,3.8,1.09,5.71A92.91,92.91,0,0,1,243.55,448.83Zm-5.61-15.05c-1,4.18-1.94,8.37-2.86,12.57-1.86,8.46-3.56,17-5.17,25.48-.82,4.35-1.65,8.7-2.25,13.09a36,36,0,0,0-5.73-4.8.24.24,0,0,0,0-.08,31.48,31.48,0,0,1,1-5.92q.57-2.88,1.25-5.74,1.38-5.72,3.11-11.33a183.78,183.78,0,0,1,8.26-21.77c1.09-2.39,2.17-4.8,3.29-7.18l.37,0C238.8,430,238.38,431.89,237.94,433.78Zm-3.69-9.68-1.19,1.26c-1.85,1.19-3.72,2.34-5.63,3.41a108.65,108.65,0,0,1-15.21,7.06c-9.26,3.46-19.64,6-29.4,3.08a26.64,26.64,0,0,1-11.41-6.83,150.15,150.15,0,0,0,26.3-.93,210.42,210.42,0,0,0,27.2-4.82q3.84-1,7.62-2.07l2.15-.63C234.54,423.79,234.4,424,234.25,424.1Zm-25.2,20.51c-5.17,1.89-10.05,5.3-14.73,7.65A137.43,137.43,0,0,1,165.55,463c-4.9,1.22-9.86,2-14.83,2.89,4.27-2.64,8.47-5.38,12.83-7.87a133.42,133.42,0,0,1,15.47-7.7A71.18,71.18,0,0,1,209.05,444.61Zm-45.77,20.07a144.24,144.24,0,0,0,14.57-4.05A146.21,146.21,0,0,0,192,455.14c4.39-2,8.59-4.35,12.88-6.53,3.54-1.79,7.37-3.36,11.34-3.34a9.63,9.63,0,0,1,3.72,1.44,3.76,3.76,0,0,1,.81.77,1.72,1.72,0,0,0-.33,0c-11.23,1.54-19.58,9.81-28.49,16a43.85,43.85,0,0,1-14,6.78,37.45,37.45,0,0,1-14,.82,39.57,39.57,0,0,1-7.68-1.75,51.33,51.33,0,0,1-5.9-2.53A99.55,99.55,0,0,0,163.28,464.68Zm2.4,16.31c-1.12-1.19-2.29-2.34-3.47-3.48A40.74,40.74,0,0,0,174,479.59c1,0,1.91,0,2.86-.06a6.19,6.19,0,0,0-1.92,5.13c.23,2.74,1.65,5.3,2.88,7.7q2.19,4.29,4.76,8.38a109.84,109.84,0,0,0,11.79,15.53c.42.45.85.88,1.27,1.33-.7-.21-1.41-.37-2.12-.51-1.32-.26-2.66-.44-4-.57a32.85,32.85,0,0,0-6.65,0,40.4,40.4,0,0,0-.44-4.41C180.53,500.2,173.84,489.67,165.68,481Zm48.45,52.51-2-.36a123.15,123.15,0,0,0-20.83-1.59,95,95,0,0,0-11,.76,37.73,37.73,0,0,0,2.65-13.78,42.88,42.88,0,0,1,6.42-.3,32.87,32.87,0,0,1,3.83.37,39.06,39.06,0,0,0,3.88.59l.08,0a113.21,113.21,0,0,0,13.38,11.75Q212.28,532.22,214.13,533.5Zm-43.94-40.76a57.42,57.42,0,0,1,5.87,10.45,50.39,50.39,0,0,1,2.59,7.66c.34,1.34.64,2.7.92,4.07a14.61,14.61,0,0,0,.87,3.3,35.74,35.74,0,0,1-.61,7.2c-.11.6-.25,1.2-.4,1.79A44.69,44.69,0,0,0,178,512.3c-2.74-10.57-9.29-19.65-15.92-28.18l.48.4A96.94,96.94,0,0,1,170.19,492.74Zm-13.52-12.28c3.74,4.61,7.48,9.23,10.82,14.14,5.93,8.73,10.93,18.73,11,29.5a34.13,34.13,0,0,1-.95,8.43A30.21,30.21,0,0,1,174,538.6c-.26-4.09-.87-8.17-1.51-12.19a136.21,136.21,0,0,0-3.44-15.61,137.69,137.69,0,0,0-12.43-29.93c-.24-.43-.5-.86-.75-1.29l.19.13Zm-2.87-.39a139.49,139.49,0,0,1,7.39,14.33A144.46,144.46,0,0,1,171,524.63c1,5,1.55,10.07,2.07,15.15a101,101,0,0,1-14.57-28c-3.32-9.95-4.63-20.2-6.13-30.53-.23-1.62-.5-3.25-.8-4.87C152.32,477.63,153.07,478.84,153.8,480.07Zm26,53.41A138.88,138.88,0,0,1,219.1,537c-3.58.18-7.16.6-10.68,1.07-5.51.72-11,1.67-16.49,2.48a176.39,176.39,0,0,1-17.79,1.87c0-.08,0-.16,0-.24l.09-.07A31.2,31.2,0,0,0,179.79,533.48Zm20.26-14.19a108.76,108.76,0,0,1-21.11-29.52c-.87-1.79-2-4-1.84-6.16,1,1.8,2.21,3.51,3.34,5.2q2.13,3.19,4.39,6.29,4.53,6.19,9.55,12a195.88,195.88,0,0,0,21.4,21.23c3,2.56,6.11,5.11,9.32,7.46l-.46.09c-.73-.2-1.45-.42-2.18-.6-1.07-.27-2.14-.49-3.2-.73-1.78-1.1-3.53-2.23-5.24-3.45A111.65,111.65,0,0,1,200.05,519.29Zm18.13,9.54Q212.38,524,207,518.7A183.85,183.85,0,0,1,187.37,496c-1.64-2.23-3.24-4.5-4.78-6.81s-3-5-4.77-7.34a.5.5,0,0,0-.08-.07,7.86,7.86,0,0,1,4-2.66,49.13,49.13,0,0,0,9.47-2.5.66.66,0,0,0,0,.58A268.22,268.22,0,0,0,204.73,502c5,8,10.26,15.82,15.75,23.5,2.36,3.3,4.83,6.51,7.37,9.68-.34.09-.68.19-1,.25l-.16,0C223.81,533.3,220.94,531.14,218.18,528.83ZM214.39,515c-5.18-7.8-9.86-15.93-14.33-24.16-2.55-4.69-5-9.46-7.27-14.27a.72.72,0,0,0-.22-.29,44.89,44.89,0,0,1,8.26-.57A38.51,38.51,0,0,1,218,480.39c.78,1.73,1.77,3.38,2.6,5.08s1.74,3.7,2.55,5.57a110.11,110.11,0,0,1,4.31,11.66,123.62,123.62,0,0,1,4.85,24.16,31.4,31.4,0,0,1,.1,6.36,16.49,16.49,0,0,1-2.19,1.18,14.87,14.87,0,0,1-1.41.51C223.81,528.43,218.92,521.85,214.39,515Zm19.35,14.81a93.38,93.38,0,0,0-1.26-12.7,117.3,117.3,0,0,0-7-24.86q-1.31-3.31-2.84-6.52c-.56-1.17-1.12-2.38-1.72-3.56a31.54,31.54,0,0,1,8.87,9.17c3.52,5.6,5.2,12.2,5.87,18.73a86.46,86.46,0,0,1,.38,10.55c-.05,3.22-.31,6.44-.26,9.66a15.38,15.38,0,0,1-2.14,2.05C233.74,531.51,233.75,530.66,233.74,529.83Zm5.22,3a27.5,27.5,0,0,0,1.26-2.93,71.33,71.33,0,0,0,2.19-7.62,96.88,96.88,0,0,1,24.16-43.91,138,138,0,0,1,11.29-10.35c.4-.06.79-.1,1.18-.12-13.16,17.53-16.93,40.47-31,57.56a53.25,53.25,0,0,1-8.8,8.57A5.32,5.32,0,0,1,239,532.88Zm13.09-90.31A119,119,0,0,0,265.64,460q2.08,2.22,4.27,4.32c.82.79,1.68,1.7,2.59,2.52-.67.26-1.34.53-2,.81-1.06.45-2.09.95-3.1,1.47-1.16-1.07-2.4-2.06-3.54-3.14q-2-1.93-3.93-4a70.56,70.56,0,0,1-14.23-23.85c-.16-1.71-.48-3.4-.68-5.11a12.54,12.54,0,0,1,0-3A105.39,105.39,0,0,0,252.05,442.57Zm-19.37-20.71c-2.18.71-4.38,1.37-6.59,2q-6.61,1.89-13.34,3.32a178.69,178.69,0,0,1-27.16,3.55c-5,.29-10,.39-15,.52-.13-.15-.25-.3-.38-.44q1.14-3,2.07-6.09c8.53-1.41,17-3,25.61-4.09,8.09-1,16.41-2.07,24.58-1.63,1.55.08,3.09.26,4.63.49a32.91,32.91,0,0,0,7.08,1.85Zm-60.16,2.08c.67-2.26,1.28-4.54,1.78-6.85a.65.65,0,0,0,.51-.66c3.38-.31,6.75-1.13,10.14-1.51a107,107,0,0,1,11.18-.65,99.14,99.14,0,0,1,22.25,2.36l.68.17c-2.09,0-4.19.15-6.27.33-8.9.77-17.8,2.29-26.59,3.87C181.6,421.83,177,422.77,172.52,423.94Zm8.77-13.65a59.44,59.44,0,0,1,9.44-2.69,68.37,68.37,0,0,1,9.67-1.23c2.36-.13,4.71-.11,7.06-.11a16.17,16.17,0,0,0,2.86,1.55,56.74,56.74,0,0,0,8.76,7.44c-3.39-.7-6.82-1.26-10.26-1.65a104.85,104.85,0,0,0-22.54-.17c-2.14.22-4.26.5-6.38.85a38.85,38.85,0,0,0-5,1.06C175.48,412.47,178.75,411.24,181.29,410.29ZM169,427.56a93.14,93.14,0,0,1-14.56,26.74,1.67,1.67,0,0,0-.28-.31c1.33-2.28,2.59-4.6,3.76-6.95a149.85,149.85,0,0,0,7.37-17.66c2.13-6.12,3.91-12.37,5.44-18.66a102.94,102.94,0,0,0,3.17-18.59A90.79,90.79,0,0,1,169,427.56Zm3-38c0,6.51-1.42,12.92-2.79,19.26-2.63,12.16-6.11,24.25-11.41,35.53-1.51,3.22-3.21,6.32-5,9.36a1.32,1.32,0,0,0-.46.4,3.34,3.34,0,0,1-1.59,1.18q2.25-5.44,4.39-10.92c2.36-6,4.64-12.11,6.63-18.28a178.88,178.88,0,0,0,7.93-34.8,124.23,124.23,0,0,0,.77-13.08A42,42,0,0,1,172,389.6Zm-15.23-10.5c2.42-2.17,5-4.79,8.05-6a5,5,0,0,1,3.68-.19c1.15,23.75-5.47,47-13.65,69-1.69,4.58-3.53,9.1-5.3,13.65a5.46,5.46,0,0,1-2.29-.4c1.56-8,2.73-16,3.67-24.08q1.82-15.48,2.26-31.08.25-8.77,0-17.57C154.35,381.3,155.54,380.18,156.76,379.1Zm-21.59,46.49a46.59,46.59,0,0,1,.61-14.72,210.12,210.12,0,0,1,2.8,29.63A72.45,72.45,0,0,1,135.17,425.59Zm7.08,24.47c-1-2.33-1.95-4.69-2.81-7.07a163.58,163.58,0,0,0-2.88-35.26c.2-.68.41-1.36.65-2a48.25,48.25,0,0,1,3.78-8.07,169.57,169.57,0,0,1,2.66,44.06c-.21,3.07-.52,6.13-.88,9.19C142.59,450.6,142.42,450.33,142.25,450.06Zm1.27,1.89a155.23,155.23,0,0,0,.74-43.32c-.54-4.29-1.33-8.54-2.21-12.77a67,67,0,0,1,6.72-8.83c.91-1,1.86-2,2.81-3a384.78,384.78,0,0,1-4.06,60.47c-.49,3.3-1.05,6.59-1.63,9.87A10.87,10.87,0,0,1,143.52,452ZM75.9,406.35c2.54-1.27,5.67.23,8,1.25,13.4,5.8,26.53,12.62,37.63,22.22a76.08,76.08,0,0,1,19,24.29,52.26,52.26,0,0,1,1.25,5.84l-1.18-.75c-1.59-1.83-3.19-3.65-4.86-5.41-4.29-4.54-8.88-8.81-13.56-12.92A215,215,0,0,0,92,418.75q-8.88-5.38-18.24-9.92A4.56,4.56,0,0,1,75.9,406.35Zm-2.69,4.37c0-.17.05-.34.09-.51a239.08,239.08,0,0,1,59.82,42.88l3.78,3.75L116.52,444c-10.07-6.37-20.39-12.56-29.73-20A93.05,93.05,0,0,1,73.21,410.72Zm-.09.66c6.85,8.91,16.25,15.78,25.42,22.07,10,6.88,20.18,13.6,30.36,20.27q6.61,4.32,13.25,8.58a6.26,6.26,0,0,1,0,1c-3.12-1.89-6.37-3.61-9.58-5.22-5.88-2.95-11.9-5.58-17.85-8.37-11.61-5.45-23.18-11.63-31.89-21.26a54.67,54.67,0,0,1-9.77-15.49A13.6,13.6,0,0,1,73.12,411.38Zm52.19,51.29a90.51,90.51,0,0,1-18.93-6c-11.51-5.18-21.63-13.49-27.85-24.6a43.19,43.19,0,0,1-5.33-16.57c3.76,9.8,12,17.88,20.32,23.8,10.82,7.65,23,12.82,34.8,18.76,3.32,1.67,6.6,3.41,9.82,5.26.81.47,1.6,1,2.39,1.46-1.82-.18-3.65-.35-5.47-.57C131.8,463.84,128.54,463.33,125.31,462.67Zm-55.7,51c1.61-3.27,3.35-6.47,5.25-9.58,7.28-11.87,17-22.55,29.55-29A55.28,55.28,0,0,1,123,469.22c6-.75,12.17.11,18.14-.88l-.89.81a279.83,279.83,0,0,0-28.12,14.26,219.86,219.86,0,0,0-30.86,20.87,69.55,69.55,0,0,0-13.77,14.84C67.58,517.22,69,514.9,69.61,513.68Zm-.86,7.88a1.75,1.75,0,0,1-.24-.11s0,0,0,0a1,1,0,0,0,.44-.38c6.65-10.43,16.64-18,26.67-24.95A289.13,289.13,0,0,1,126.88,477c3.45-1.8,6.93-3.52,10.43-5.22q-3.3,2.93-6.68,5.77c-4.95,4.17-10,8.2-15.12,12.16s-10.28,7.87-15.45,11.77c-4.88,3.69-9.72,7.45-14.72,11A69.69,69.69,0,0,1,68.75,521.56ZM136.89,479a179.29,179.29,0,0,1-14.95,17.5c-9.69,9.85-21.16,18.2-34.37,22.58a62.08,62.08,0,0,1-9.67,2.39c-1.58.25-3.16.43-4.75.55a12.33,12.33,0,0,1-3.32,0c10.81-3.47,19.93-11,29-17.61q15.83-11.62,31.19-23.84,4.23-3.37,8.39-6.84c1.71-1.42,3.46-2.86,5.16-4.34-.22.44-.45.88-.7,1.31A92,92,0,0,1,136.89,479Zm10.49-1.32c.1-.2.2-.41.29-.61a4.22,4.22,0,0,1,1.33-.88c.28,1.39.54,2.79.78,4.19.91,5.22,1.61,10.48,2.59,15.7a102.85,102.85,0,0,0,10.49,29.64,104.19,104.19,0,0,0,8,12.65c-8.88-5.54-15.34-14.26-19-24-3.78-9.94-4.61-20.85-4.6-31.4C147.25,481.18,147.33,479.41,147.38,477.64Zm-2.59,34.77A32,32,0,0,1,142,495.26a96.49,96.49,0,0,1,2.87-13A110,110,0,0,0,145.9,498c1.6,10.71,5.37,21.37,12,30a45.86,45.86,0,0,0,3,3.49C154.27,526.25,148.36,520.19,144.79,512.41Zm9,15.91c5.64,5.4,12.19,9.75,18.75,13.94a1.33,1.33,0,0,0,.4.19,80.79,80.79,0,0,1-11.84-.44,67.76,67.76,0,0,1-16.51-4.26h-.06C147.45,534.42,151.1,531.84,153.81,528.32Zm-9.91,10.19c.09-.12.2-.23.3-.35a.33.33,0,0,0,.15.18c8.73,4.84,19.52,5.69,29.32,5.46,10.78-.27,21.43-2.26,32.12-3.5,5.71-.67,11.37-.91,17.1-1-1.63.33-3.25.73-4.83,1.1q-4.23,1-8.46,1.93-8.29,1.83-16.66,3.38a201.47,201.47,0,0,1-33.49,3.62,120.94,120.94,0,0,1-18.73-1.22C140.12,544.65,141.81,541.12,143.9,538.51Zm39.77,15.93a124.05,124.05,0,0,1-22.52,2,58.1,58.1,0,0,1-11.49-.8c-3.43-.71-7.07-2.59-8.47-5.94,22.28,3,44.77-.23,66.52-5.27q4.6-1.06,9.2-2.2l4.1-1q-2.49,1.37-5,2.62c-3.42,1.67-6.92,3.18-10.47,4.53A124.22,124.22,0,0,1,183.67,554.44Zm12.08,32.09c-.62-5.6-.81-11.33.55-16.84,2.56-10.41,10.77-17.07,19.37-22.78,1.87-.89,3.74-1.8,5.57-2.78l.52-.28c-4.59,4.71-7.64,11-9.62,17.19-3.06,9.57-4,19.65-6.86,29.25a45.17,45.17,0,0,1-6.77,14.21C197.44,598.54,196.41,592.56,195.75,586.53ZM200.94,615c-1.32-2.53-1.63-5.66-2.09-8.5a.76.76,0,0,0,.72-.34c5.4-7.88,7.84-17.17,9.7-26.42,1.95-9.69,3.5-19.76,8.46-28.47a37.09,37.09,0,0,1,6.48-8.33,101.81,101.81,0,0,0-8.63,26.21,121.3,121.3,0,0,0-1.68,16.24c-.27,5.56-.38,11.15-1.58,16.6a31.2,31.2,0,0,1-8.07,15.64A4.87,4.87,0,0,1,200.94,615Zm9,1.48a12.29,12.29,0,0,1-3,1.13,7,7,0,0,1-1.56.15c7.56-7,9.15-18.18,9.81-28,.39-5.64.56-11.26,1.44-16.85a98.24,98.24,0,0,1,4-16.29c.87-2.58,1.86-5.11,2.94-7.61-1.59,6.35-1.81,13.08-1.64,19.6.29,11.29,1.74,23-2.14,33.91a35.49,35.49,0,0,1-2.54,5.53c-.56.73-1.1,1.47-1.69,2.18C213.78,612.34,211.83,614.36,210,616.45Zm10.45-9a40.65,40.65,0,0,1-3.73,4,78.66,78.66,0,0,0,5-6.53A73.3,73.3,0,0,0,228.87,592,52.79,52.79,0,0,1,220.41,607.42Zm.76-4.94-.26.39a52.86,52.86,0,0,0,2.63-12.46c1.07-11.16-.62-22.41.79-33.55a42.4,42.4,0,0,1,4.56-15.1A73,73,0,0,1,221.17,602.48ZM262,587.25c-10.34-3.87-19.77-10.25-25.15-19.83a73.33,73.33,0,0,0,.32-9.48,38.6,38.6,0,0,0-1.16-8.08c4.63,7.83,8.54,16.11,13.84,23.52a50.27,50.27,0,0,0,18.27,15.89C266.1,588.65,264.05,588,262,587.25Zm29.43.9a14,14,0,0,1,1.29,2.88,6.08,6.08,0,0,1-1,1.12A45.81,45.81,0,0,1,263,584.29c-9.39-6.42-15.19-16.16-20.66-25.86-2.22-3.91-4.47-7.8-7-11.51l.07-.19c1.75,1.92,3.57,3.76,5.43,5.56a140.79,140.79,0,0,0,12.35,10.8,162.3,162.3,0,0,0,27.77,17,32.57,32.57,0,0,1,7.85,4.91A15.45,15.45,0,0,1,291.47,588.15Zm1.76.11a15,15,0,0,0-1.78-2.65,21.81,21.81,0,0,0-5.83-4.67c-2.36-1.37-4.88-2.46-7.33-3.65s-4.87-2.51-7.25-3.88a131,131,0,0,1-26.53-20.33c-2.24-2.2-4.35-4.51-6.4-6.88-.46-.52-.9-1.06-1.35-1.59l.06-.06c3.39,1.65,6.82,3.25,10.21,4.9,5.46,2.66,11,5.28,16.42,7.92,5.15,2.49,10.41,4.83,15.37,7.68,4.6,2.64,9,6,11.79,10.56A18.26,18.26,0,0,1,293.23,588.26Zm-7.62-27.64a37.26,37.26,0,0,1,7.8,13.94,30.54,30.54,0,0,1,1.18,7c-1.23-6-5.75-11.51-10.68-15s-10.36-6-15.68-8.64l-17.33-8.69c-4-2-8-4.06-12-6a10.6,10.6,0,0,1,2-.69,46.67,46.67,0,0,1,7.38-.26,51.93,51.93,0,0,1,7.35.89c.53.1,1.06.22,1.59.35C267.82,546.6,278.29,552.23,285.61,560.62Zm.79-84.88a69.39,69.39,0,0,1,2.07,9.11c1.92,12.12.66,25.3-5.83,35.95-6.13,10.06-16.81,17.58-28.63,18.92l-.22,0-.29,0a75.41,75.41,0,0,0-9.2-1.64l-1.35-.13c-.21-.11-.41-.23-.62-.36a51.34,51.34,0,0,0,24.78-16,52.18,52.18,0,0,0,9-14.66c2.21-5.52,3.35-11.44,4.37-17.27a99.38,99.38,0,0,1,4.49-17.92A26,26,0,0,1,286.4,475.74Zm-10.83,27.77A51.15,51.15,0,0,1,255.17,530a54.58,54.58,0,0,1-14,6.66,7.77,7.77,0,0,1-1.27-1.48c7.11-5.14,12.55-12.39,16.92-20,5.85-10.18,9.87-21.28,15.21-31.72a92.32,92.32,0,0,1,9.58-15.17,5.07,5.07,0,0,1,1.63,1C278.3,480,279.15,492.4,275.57,503.51ZM287.91,472c-.11-.27-.2-.56-.32-.83a12.91,12.91,0,0,0-1-1.9,37.36,37.36,0,0,0,6.15,2.15C291.11,471.74,289.5,471.9,287.91,472Zm15-10.91a9.45,9.45,0,0,1-5.18,8.74c-.38.18-.76.34-1.14.5a.94.94,0,0,0-.57-.31c-9.21-1.36-17.14-6.48-23.81-12.76-7.25-6.83-13.52-14.88-19.49-22.82-2-2.69-4-5.43-5.94-8.18a3.9,3.9,0,0,1,.4-.31,178.5,178.5,0,0,0,41.43,28.53c2.32,1.17,4.65,2.29,7,3.39,1.14.53,2.3,1,3.45,1.53a8,8,0,0,0,3.6,1.09.78.78,0,0,0,.21-.09C302.92,460.66,303,460.89,303,461.12ZM259.4,425.63a106.53,106.53,0,0,1,16.71,7.19c6.21,3.23,12.65,6.53,17.93,11.19,4.32,3.81,8,9.08,8.77,14.92a7.4,7.4,0,0,0-2.1-1.06c-1.11-.44-2.21-.88-3.31-1.34-2.13-.89-4.25-1.79-6.34-2.76-4.12-1.92-8.18-4-12.13-6.22a183.18,183.18,0,0,1-23-15.46c-2.71-2.13-5.37-4.3-8-6.52a10.2,10.2,0,0,1,5.41-.55A51.44,51.44,0,0,0,259.4,425.63Zm46.42-45.2a64.39,64.39,0,0,1-48.93,39.05,1.25,1.25,0,0,0-1.1-.61,5.73,5.73,0,0,1-3.93-1.23,267.36,267.36,0,0,0,24.28-15.12c9.35-6.44,19-13,26.63-21.51a55.28,55.28,0,0,0,5.21-6.68C307.35,376.4,306.65,378.44,305.82,380.43Zm2.68-19a8.91,8.91,0,0,1,1.12,4.39A47.62,47.62,0,0,1,302,378.4a88.28,88.28,0,0,1-11.48,11A285.84,285.84,0,0,1,262,410c-3.66,2.32-7.38,4.54-11.1,6.76-.14-.15-.26-.3-.38-.45,6.05-6,12-12.13,18.05-18.12q12.42-12.24,25-24.29c4.7-4.51,9.42-9,14.11-13.53A6.62,6.62,0,0,1,308.5,361.47Zm-8-3.24a9.24,9.24,0,0,1,5.9,1.09c-17.05,15.56-33.41,31.9-49.56,48.4q-3.6,3.67-7.18,7.4a8.37,8.37,0,0,1-.7-1.56c-.05-.15-.07-.31-.11-.46A180.3,180.3,0,0,1,263,392.41a149.58,149.58,0,0,1,22.9-23.07c2.4-1.93,4.81-3.85,7.29-5.69S298.21,360.19,300.54,358.23Zm-8.63,2.24c1.35-.47,3-1.05,4.74-1.51-1.18.79-2.33,1.63-3.49,2.48-2.25,1.66-4.47,3.38-6.63,5.16-4.14,3.44-8.09,7.15-11.86,11a172,172,0,0,0-21,25.65q-2.7,4-5.11,8.26a17.69,17.69,0,0,1,.66-6.11,85.31,85.31,0,0,1,11.28-21.17C268.43,373.54,279.33,364.89,291.91,360.47Zm-74.85-4.57.05,0a51,51,0,0,1,26.37,31.76c-.1,2.55.34,5.12.46,7.65a41.39,41.39,0,0,1-.49,9.17c-.09.49-.24,1-.35,1.47-.06-.31-.11-.63-.17-.94a91.28,91.28,0,0,0-3.56-13.6,93.87,93.87,0,0,0-13.13-25A86.69,86.69,0,0,0,217.06,355.9Zm-16.84-4c2.7-1.05,5.81-.16,8.45.65a50.57,50.57,0,0,1,5.82,2.23.83.83,0,0,0,.13,1,92.42,92.42,0,0,1,26.5,47.75c.39,1.87.7,3.76,1,5.65-.15.39-.27.79-.44,1.18s-.49.7-.76,1c-.86-2.1-1.76-4.19-2.7-6.25q-3.36-7.31-7.39-14.27a175.78,175.78,0,0,0-18.5-26.24,166.1,166.1,0,0,0-12.1-12.78Zm-1.72,1,.07.09A168.34,168.34,0,0,1,236,404.19c1.33,2.82,2.52,5.7,3.7,8.58l-.13.12c-.27-.21-.54-.41-.79-.62q-3.27-2.68-6.4-5.5-6.34-5.72-12.15-12c-3.81-4.15-7.45-8.45-10.84-12.95a107.73,107.73,0,0,1-8.46-12.59,37.59,37.59,0,0,1-4.72-13.54A9.26,9.26,0,0,1,198.5,352.87Zm-4.92,15v-.07a31.51,31.51,0,0,1,1.19-8.58c.15-.53.34-1.07.54-1.61,1.25,8.42,6.28,15.92,11.18,22.71a186.49,186.49,0,0,0,22.72,26.13q3.47,3.28,7.1,6.39l1.62,1.39c-.15.1-.28.22-.44.32a12.26,12.26,0,0,1-1.41.81,72.53,72.53,0,0,1-37.16-34.29A79.11,79.11,0,0,1,193.58,367.91ZM209.21,403c-7.75-9-14.43-19.84-15.47-31.86A73.75,73.75,0,0,0,205,393.44a76.41,76.41,0,0,0,22.92,20.33c1.69,1,3.45,1.88,5.24,2.73a16.24,16.24,0,0,1-5.6.44,44.66,44.66,0,0,1-13.36-8.8.54.54,0,0,0-.18-.59c-.53-.42-1.09-.81-1.65-1.18C211.26,405.26,210.2,404.13,209.21,403Zm-22-190.89a81.21,81.21,0,0,1,8-6.05c.54-.35,1.09-.69,1.64-1a140,140,0,0,0-22.75,28,144.25,144.25,0,0,0-11.67,23.44A73.88,73.88,0,0,1,187.2,212.09Zm-22.57,43.68A141.69,141.69,0,0,1,186.74,219a133.12,133.12,0,0,1,10.11-10.86c-1.32,2.5-2.62,5-4,7.46-2.51,4.54-5.07,9-7.63,13.55-5.14,9-10.62,17.88-16.23,26.63-2.42,3.77-5,7.48-7.32,11.3a.35.35,0,0,0-.2,0c0-1,0-2,.11-3C162.53,261.24,163.52,258.48,164.63,255.77Zm-9.23,33.61c.11-.73.24-1.45.36-2.18l-.36,2.26Zm.64-3.86c.13-.73.28-1.46.42-2.19l0,0C156.33,284.07,156.18,284.8,156,285.52Zm16.72-28a110.87,110.87,0,0,1-9,8.18c1.8-2.62,3.55-5.28,5.27-7.94q4.23-6.52,8.33-13.14c5.42-8.74,10.79-17.52,15.91-26.43,2.67-4.64,5.45-9.28,7.92-14l.17-.15A108.63,108.63,0,0,1,172.76,257.47Z" transform="translate(-60.65 -26.57)"/><path class="cls-5" d="M324,453.47a3,3,0,0,0-.4-.69s0-.06,0-.09a2.34,2.34,0,0,0-2-1.75,3.08,3.08,0,0,0-2.24.52,3.41,3.41,0,0,0-.94,1c-.1.1-.23.17-.32.28a3.62,3.62,0,0,0-.83,2.1,3.26,3.26,0,0,0,.77,2.4,2.58,2.58,0,0,0,1.17.78,2.71,2.71,0,0,0,1.44.08,3.7,3.7,0,0,0,.95-.38,3.17,3.17,0,0,0,.93-.3,3,3,0,0,0,1.5-1.58A3.26,3.26,0,0,0,324,453.47Z" transform="translate(-60.65 -26.57)"/><path class="cls-5" d="M321.33,465.43a2.47,2.47,0,0,0-.18-.52,2.67,2.67,0,0,0-.67-.86,2.47,2.47,0,0,0-.7-.41,1.57,1.57,0,0,0-.83-.06,2.28,2.28,0,0,0-.8.34,2.12,2.12,0,0,0-.91,1.81,2,2,0,0,0,.14.75,1.16,1.16,0,0,0,.15.26,2.27,2.27,0,0,0,.2.42,1.75,1.75,0,0,0,.35.37,1.85,1.85,0,0,0,.87.38l.21,0a3,3,0,0,0,.52,0,2.33,2.33,0,0,0,.91-.4,2,2,0,0,0,.61-.76,2.24,2.24,0,0,0,.16-.52,2.53,2.53,0,0,0,0-.55A1.09,1.09,0,0,0,321.33,465.43Z" transform="translate(-60.65 -26.57)"/><path class="cls-5" d="M326.32,466.42a.66.66,0,0,0-.2-.29.52.52,0,0,0-.19-.14.75.75,0,0,0-.35-.13h-.25a.9.9,0,0,0-.44.18l-.21.17a.83.83,0,0,0-.3.39l-.07.25a1.05,1.05,0,0,0,.07.5.73.73,0,0,0,.22.3.7.7,0,0,0,.31.22.82.82,0,0,0,.38.06.68.68,0,0,0,.37-.07,1.14,1.14,0,0,0,.39-.3l.16-.22a.71.71,0,0,0,.15-.33.77.77,0,0,0,0-.37Z" transform="translate(-60.65 -26.57)"/><path class="cls-5" d="M139.51,524.22c-.07-.09-.17-.15-.24-.23a3.64,3.64,0,0,0-3.35-2,3.15,3.15,0,0,0-2.32,1.31,2.89,2.89,0,0,0-.59.57,3.74,3.74,0,0,0-.71,2.89,3.61,3.61,0,0,0,2,2.63,3.94,3.94,0,0,0,3.14.07,3.61,3.61,0,0,0,1.42-1,3,3,0,0,0,.49-.46A3.22,3.22,0,0,0,139.51,524.22Z" transform="translate(-60.65 -26.57)"/><path class="cls-5" d="M144.86,528.55v0a.48.48,0,0,0,0-.24.64.64,0,0,0-.15-.31l-.17-.16-.2-.12h0l-.16-.09a1,1,0,0,0-.51-.08.62.62,0,0,0-.33,0,1.11,1.11,0,0,0-.45.22l-.07,0a1.85,1.85,0,0,0-.28.28l-.12.13a1.25,1.25,0,0,0-.22.53.43.43,0,0,0,0,.07.3.3,0,0,0,0,.1.33.33,0,0,0,0,.14.62.62,0,0,0,0,.38l0,.13a.81.81,0,0,0,.16.32.93.93,0,0,0,.39.29,1,1,0,0,0,.51.07l.11,0h0a1.32,1.32,0,0,0,.65-.09,2.5,2.5,0,0,0,.56-.35l.23-.23a1,1,0,0,0,.21-.46.65.65,0,0,0,0-.34A.85.85,0,0,0,144.86,528.55Z" transform="translate(-60.65 -26.57)"/><path class="cls-5" d="M136.79,535.23c-1.1,0-1.32,1.72-.21,1.72S137.91,535.23,136.79,535.23Z" transform="translate(-60.65 -26.57)"/><polygon class="cls-5" points="62.06 170.72 62.07 170.72 62.07 170.72 62.06 170.72 62.06 170.72"/><path class="cls-5" d="M126.06,195.24a3.83,3.83,0,0,0-1.43-1.33,4.07,4.07,0,0,0-3.21-.11A4.25,4.25,0,0,0,119,196c-1.08,2.17.32,4.92,2.45,5.79a4.24,4.24,0,0,0,5.76-3.17A4,4,0,0,0,126.06,195.24Z" transform="translate(-60.65 -26.57)"/><path class="cls-5" d="M122.48,196.89h0Z" transform="translate(-60.65 -26.57)"/><path class="cls-5" d="M122.91,197.11Z" transform="translate(-60.65 -26.57)"/><path class="cls-5" d="M130.89,204.45l-.21-.35a1.67,1.67,0,0,0-.65-.5,1.91,1.91,0,0,0-1.25,0,1.28,1.28,0,0,0-.5.36,1.11,1.11,0,0,0-.35.5,1.56,1.56,0,0,0-.1.85,2.44,2.44,0,0,0,0,.27,1.09,1.09,0,0,0,.22.57,1.16,1.16,0,0,0,.39.46l.36.21a1.21,1.21,0,0,0,.62.1.76.76,0,0,0,.42-.06,1.13,1.13,0,0,0,.54-.26l.29-.29a1.57,1.57,0,0,0,.31-.77c0-.09,0-.18,0-.27A1.68,1.68,0,0,0,130.89,204.45Z" transform="translate(-60.65 -26.57)"/><path class="cls-5" d="M131.58,199.54l0,0,0-.13-.13-.23a.76.76,0,0,0-.31-.25.46.46,0,0,0-.25-.1.51.51,0,0,0-.27,0,.48.48,0,0,0-.27,0h0a.88.88,0,0,0-.44.17.6.6,0,0,0-.25.19,1,1,0,0,0-.28.39,1.72,1.72,0,0,0-.08.38v.49c0,.09.06.19.08.28l.15.25a.77.77,0,0,0,.34.28.54.54,0,0,0,.27.11.52.52,0,0,0,.3,0,.61.61,0,0,0,.3,0,.84.84,0,0,0,.39-.19,1.76,1.76,0,0,0,.4-.37,1,1,0,0,0,.21-.44.91.91,0,0,0,0-.49Z" transform="translate(-60.65 -26.57)"/><path class="cls-5" d="M285.94,616.26a3.28,3.28,0,0,0-1.22-.69,3.1,3.1,0,0,0-1.77-.7,4.33,4.33,0,0,0-.72,0,3.51,3.51,0,0,0-1.07-.07,3.24,3.24,0,0,0-2.52,2A3.91,3.91,0,0,0,281,622l.55.13a4,4,0,0,0,3.05.18,3.88,3.88,0,0,0,2.3-2.35A3.5,3.5,0,0,0,285.94,616.26Z" transform="translate(-60.65 -26.57)"/><path class="cls-5" d="M286.17,626a1.51,1.51,0,0,0-.3-.7l-.27-.26a1.43,1.43,0,0,0-.72-.29,1,1,0,0,0-.58,0,1.11,1.11,0,0,0-.51.25,1,1,0,0,0-.36.44,1,1,0,0,0-.2.55c0,.13,0,.26,0,.39a1.51,1.51,0,0,0,.3.7l.26.27a1.51,1.51,0,0,0,.72.29,1.19,1.19,0,0,0,.59-.06,1.09,1.09,0,0,0,.51-.24,1.17,1.17,0,0,0,.36-.44,1.18,1.18,0,0,0,.2-.55Z" transform="translate(-60.65 -26.57)"/><path class="cls-5" d="M276.27,621.44a.84.84,0,0,0-.06-.14l0-.1s0,0,0-.05v0a.86.86,0,0,0-.1-.16l0,0,0,.08a1,1,0,0,0-.17-.23.71.71,0,0,0-.27-.21,1,1,0,0,0-.49-.17l.32.08-.16-.08-.33-.09h-.35l-.32.09a.94.94,0,0,0-.4.28.7.7,0,0,0-.19.26.61.61,0,0,0-.13.31.57.57,0,0,0,0,.34,1,1,0,0,0,.09.5l.08.15v0a.91.91,0,0,0,.3.42.59.59,0,0,0,.18.14h0l.05,0h0l.06,0h0l.22.13a.73.73,0,0,0,.25,0h0a1,1,0,0,0,.24,0,.37.37,0,0,0,.18,0l.33-.09a.93.93,0,0,0,.41-.29.71.71,0,0,0,.21-.27,1,1,0,0,0,.17-.49A.85.85,0,0,0,276.27,621.44Z" transform="translate(-60.65 -26.57)"/><path class="cls-5" d="M294.37,622.82l-.09-.33,0,0v0a1.25,1.25,0,0,0-.08-.12l-.08-.13v0a.83.83,0,0,0-.11-.15.84.84,0,0,0-.38-.26h-.06a1,1,0,0,0-.54-.09.27.27,0,0,0-.13,0h-.2l-.37.1-.32.2-.08,0-.07.05a2,2,0,0,0-.33.32l-.12.13-.06.07a2.94,2.94,0,0,0-.21.36c0,.14-.07.27-.11.4s0,.28,0,.42a1.14,1.14,0,0,0,.2.54,1.12,1.12,0,0,0,.38.43l.34.2a1.52,1.52,0,0,0,.79.1.36.36,0,0,0,.2-.06,1.08,1.08,0,0,0,.53-.25,4,4,0,0,0,.29-.29l.06-.06.13-.13.09-.15.14-.24a.73.73,0,0,0,.15-.36.46.46,0,0,0,.05-.2v-.1A1.13,1.13,0,0,0,294.37,622.82Z" transform="translate(-60.65 -26.57)"/><path class="cls-5" d="M257,309.52a3.53,3.53,0,0,0-2.87-2.24,3.68,3.68,0,0,0-.47,0,3.83,3.83,0,0,0-2.48.45,3.71,3.71,0,0,0-2,2.91,4.16,4.16,0,0,0,1.05,3.13,3.91,3.91,0,0,0,3.43,1.23,4.24,4.24,0,0,0,2.87-1.74A4.08,4.08,0,0,0,257,309.52Z" transform="translate(-60.65 -26.57)"/><path class="cls-5" d="M259.37,318.46a1.53,1.53,0,0,0-.31-.73l-.28-.28a1.55,1.55,0,0,0-.75-.3,1.26,1.26,0,0,0-.61.06,1.15,1.15,0,0,0-.53.26,1.18,1.18,0,0,0-.38.45,1.15,1.15,0,0,0-.2.58v.41a1.64,1.64,0,0,0,.31.73,3.7,3.7,0,0,1,.28.28,1.53,1.53,0,0,0,.75.3,1.05,1.05,0,0,0,.61-.06,1.22,1.22,0,0,0,.54-.25,1.26,1.26,0,0,0,.37-.46,1.16,1.16,0,0,0,.21-.58C259.38,318.74,259.38,318.6,259.37,318.46Z" transform="translate(-60.65 -26.57)"/><path class="cls-5" d="M267,321.35a1.59,1.59,0,0,0-1.73,1.34,1.56,1.56,0,0,0,1.35,1.73,1.6,1.6,0,0,0,1.72-1.35A1.55,1.55,0,0,0,267,321.35Z" transform="translate(-60.65 -26.57)"/><path class="cls-5" d="M266.78,312.5l-.19-.33a1.51,1.51,0,0,0-.62-.47,1.1,1.1,0,0,0-.59-.1,1.08,1.08,0,0,0-.58.11,1.12,1.12,0,0,0-.47.33,1.15,1.15,0,0,0-.33.48,1.67,1.67,0,0,0-.1.8v.17a1.14,1.14,0,0,0,.2.54,1,1,0,0,0,.1.17,1.52,1.52,0,0,0,.61.46,1.09,1.09,0,0,0,.59.1,1.16,1.16,0,0,0,.57-.11,1.42,1.42,0,0,0,.59-.47,1,1,0,0,0,.25-.53.85.85,0,0,0,.05-.21v-.16A1.49,1.49,0,0,0,266.78,312.5Z" transform="translate(-60.65 -26.57)"/><path class="cls-5" d="M231.43,321.8a4.14,4.14,0,0,0-2.28-1.73,3.36,3.36,0,0,0-3,.12,3.83,3.83,0,0,0-1.22,1.05,4.47,4.47,0,0,0-.46,4.27,3.66,3.66,0,0,0,2.19,2,4.26,4.26,0,0,0,3-.19,4.14,4.14,0,0,0,2.15-2.15A3.73,3.73,0,0,0,231.43,321.8Z" transform="translate(-60.65 -26.57)"/><path class="cls-5" d="M235.81,330.64a1.25,1.25,0,0,0-.36-.49,1.11,1.11,0,0,0-.5-.35,1.61,1.61,0,0,0-.84-.11l-.25,0a1.11,1.11,0,0,0-.49.12l-.3.17-.09,0a1.72,1.72,0,0,0-.38.2,1.29,1.29,0,0,0-.4.53.93.93,0,0,0-.09.51,1.08,1.08,0,0,0,.09.5,1.4,1.4,0,0,0,.41.52.83.83,0,0,0,.16.09.56.56,0,0,0,.17.09l.06,0,.1,0,.08,0a1,1,0,0,0,.21.15l.41.1h.1l.24,0a1.56,1.56,0,0,0,.83-.11l.35-.21a1.58,1.58,0,0,0,.5-.65,1.17,1.17,0,0,0,.1-.63A1.2,1.2,0,0,0,235.81,330.64Z" transform="translate(-60.65 -26.57)"/><path class="cls-5" d="M222.75,327.73a1.36,1.36,0,0,0-1.47,1.15,1.32,1.32,0,0,0,1.15,1.46,1.35,1.35,0,0,0,1.46-1.14A1.32,1.32,0,0,0,222.75,327.73Z" transform="translate(-60.65 -26.57)"/><path class="cls-1" d="M241.26,613.9a3.31,3.31,0,0,0-.48-1.11,3.38,3.38,0,0,0-.24-.46,2.81,2.81,0,0,0-1.08-.91,2.46,2.46,0,0,0-1.44-.22,2.6,2.6,0,0,0-1.21.54,3.52,3.52,0,0,0-.81,1.07,3.13,3.13,0,0,0-.3,1,3.43,3.43,0,0,0,0,.64.53.53,0,0,0,0,.12,2.74,2.74,0,0,0,.88,2.42,2.45,2.45,0,0,0,2.14.48,2.87,2.87,0,0,0,.87-.18,3,3,0,0,0,1.13-.87,3,3,0,0,0,.59-1.36A2.66,2.66,0,0,0,241.26,613.9Z" transform="translate(-60.65 -26.57)"/><path class="cls-1" d="M241.26,608.41A1,1,0,0,0,241,608a1.44,1.44,0,0,0-.25-.18l.09,0,0,0-.21-.12,0,0h-.11l-.27-.07.11,0a1.45,1.45,0,0,0-.29,0,.61.61,0,0,0-.23,0l.05,0-.11,0h0l0,0-.17,0-.31.18a1.44,1.44,0,0,0-.43.57l-.1.37a1.42,1.42,0,0,0,.11.73l.18.3a1.51,1.51,0,0,0,.57.44,1.09,1.09,0,0,0,.56.09,1.45,1.45,0,0,0,1.28-.85,1.09,1.09,0,0,0,.09-.56A1,1,0,0,0,241.26,608.41Z" transform="translate(-60.65 -26.57)"/><path class="cls-1" d="M242,619.43a.79.79,0,0,0-.24-.35.92.92,0,0,0-.35-.24l-.29-.08h0a1.5,1.5,0,0,0-.3,0l-.27.08-.24.14-.19.2a.68.68,0,0,0-.13.27v0a.64.64,0,0,0,0,.07s0,0,0,.06a.57.57,0,0,0,0,.29s0,.06,0,.1,0,0,0,.07l0,.11h0c0,.05,0,.11,0,.16s.05.06.06.09h0a.39.39,0,0,0,.08.1v0a1,1,0,0,0,.19.22l-.14-.14s0,.07.06.09.06,0,.08.06h0a.85.85,0,0,0,.27.18l.29.08a.79.79,0,0,0,.43-.05.77.77,0,0,0,.39-.18l.19-.2a.87.87,0,0,0,.19-.4.81.81,0,0,0,0-.44Z" transform="translate(-60.65 -26.57)"/><path class="cls-1" d="M240.1,620.52l0,0,0-.06Z" transform="translate(-60.65 -26.57)"/><polygon class="cls-1" points="179.45 593.96 179.45 593.96 179.44 593.95 179.45 593.96"/><path class="cls-1" d="M236.29,618.2c-1,0-1.16,1.5-.19,1.5S237.26,618.2,236.29,618.2Z" transform="translate(-60.65 -26.57)"/><path class="cls-1" d="M294,526.54a3,3,0,0,0-.6-.34l-.13-.13a2.79,2.79,0,0,0-3-.06l-.26.07a3.68,3.68,0,0,0-1.15.82,6.09,6.09,0,0,0-1.8,3,3.33,3.33,0,0,0,.23,2.46,3.72,3.72,0,0,0,1.86,1.66,4.71,4.71,0,0,0,4-.24,4.41,4.41,0,0,0,2.37-3.42A4.27,4.27,0,0,0,294,526.54Z" transform="translate(-60.65 -26.57)"/><path class="cls-1" d="M300,529.33a1.54,1.54,0,0,0-.57-1.37.81.81,0,0,0-.09-.1l-.36-.21a1.6,1.6,0,0,0-.84-.1,1.06,1.06,0,0,0-.52.12l-.06,0a.87.87,0,0,0-.18.11,1.2,1.2,0,0,0-.44.37,1,1,0,0,1-.1.17,1.26,1.26,0,0,0-.2.57c0,.13,0,.27,0,.4a2.38,2.38,0,0,0,.11.38l.2.34.28.28.05,0a1.49,1.49,0,0,0,.48.26l.41.11a1.22,1.22,0,0,0,.63-.07.77.77,0,0,0,.25-.1h0l0,0s.05,0,.06,0a1,1,0,0,0,.29-.24c.07-.07.17-.1.23-.18A1.61,1.61,0,0,0,300,529.33Z" transform="translate(-60.65 -26.57)"/><path class="cls-1" d="M297,524.86c-1.16,0-1.4,1.83-.22,1.83S298.13,524.86,297,524.86Z" transform="translate(-60.65 -26.57)"/><path class="cls-6" d="M305.32,524.62a.79.79,0,0,0-.14-.34l-.14-.13a.73.73,0,0,0-.35-.15.65.65,0,0,0-.28,0,.58.58,0,0,0-.25.12.55.55,0,0,0-.18.22.63.63,0,0,0-.1.27,1.21,1.21,0,0,1,0,.19.69.69,0,0,0,.14.34l.13.13a.7.7,0,0,0,.36.14.53.53,0,0,0,.28,0,.58.58,0,0,0,.25-.12.55.55,0,0,0,.18-.22.51.51,0,0,0,.09-.27Z" transform="translate(-60.65 -26.57)"/><path class="cls-1" d="M307.9,524.33a2.06,2.06,0,0,0-.72-1.09,2.33,2.33,0,0,0-1.13-.45,2.76,2.76,0,0,0-1.24.15l-.17.07a3.66,3.66,0,0,0-.65.06,2.9,2.9,0,0,0-1.7,1,2.63,2.63,0,0,0-.47,1.9,2.24,2.24,0,0,0,1.34,1.72h0s0,0,.06,0a2.29,2.29,0,0,0,2.38.16,4.39,4.39,0,0,0,1.23-.92,2.58,2.58,0,0,0,1-1.35A2.39,2.39,0,0,0,307.9,524.33Z" transform="translate(-60.65 -26.57)"/><path class="cls-7" d="M263,245V453a161.46,161.46,0,0,0,15.5,74.5c6.07,12.67,17.67,36.19,44,55a130.43,130.43,0,0,0,59,23v-27a26.92,26.92,0,0,1,11-12c12.25-6.87,25-.52,26,0a28.89,28.89,0,0,1,12,12v29a150.93,150.93,0,0,0,63-29c8-6.31,37.11-30.49,50.21-72.41a141.78,141.78,0,0,0,4.79-20.59L550,249s-4-53-49-57l-201.5.5A53,53,0,0,0,263,245Z" transform="translate(-60.65 -26.57)"/><path class="cls-8" d="M332.5,480.5h46s11,3,11,12v36s-1,14-11,14h-46s-12-2-12-13v-37S321.5,480.5,332.5,480.5Z" transform="translate(-60.65 -26.57)"/><path class="cls-8" d="M435.5,480.5h46s11,3,11,12v36s-1,14-11,14h-46s-12-2-12-13v-37S424.5,480.5,435.5,480.5Z" transform="translate(-60.65 -26.57)"/><polygon class="cls-9" points="281.85 483.93 300.85 496.93 300.85 472.93 281.85 483.93"/><polygon class="cls-9" points="409.35 483.93 388.85 496.93 388.85 472.93 409.35 483.93"/><path class="cls-10" d="M324,228H489s24,4,24,22V415s-3,25-23,25H320s-20-6-20-22V254S300,228,324,228Z" transform="translate(-60.65 -26.57)"/><text class="cls-11" transform="translate(312.23 278.58)">no<tspan x="-33.46" y="83.99">data</tspan></text></svg>